<svg width="260" height="260" viewBox="0 0 260 260" fill="none" xmlns="http://www.w3.org/2000/svg">
<path d="M138.366 167.294C141.698 168.86 153.095 173.958 156.527 175.291C166.88 179.822 177.992 182.365 189.285 182.789C202.486 183.345 215.542 179.857 226.708 172.792C236.001 167.001 243.844 159.158 249.635 149.865C249.077 149.152 248.464 148.483 247.802 147.866C228.541 132.603 207.28 130.204 184.486 137.869C172.761 142.018 161.796 148.063 152.028 155.764C148.329 158.529 144.864 161.629 141.265 164.561L138.366 167.294Z" fill="#D4D626"/>
<path d="M118.37 164.528C114.804 161.595 111.305 158.496 107.606 155.73C97.8386 148.03 86.8737 141.985 75.1486 137.835C52.2549 130.304 30.9608 132.703 11.8328 147.832C11.1704 148.45 10.5576 149.118 10 149.832C15.7383 159.187 23.5479 167.099 32.827 172.959C43.9924 180.024 57.0487 183.512 70.2499 182.956C81.5426 182.532 92.6548 179.989 103.007 175.458C106.34 173.992 118.37 169.027 121.836 167.46L118.37 164.528Z" fill="#D4D626"/>
<path d="M70.148 196.485C65.3672 199.691 61.0884 203.588 57.4515 208.049C45.2883 221.378 50.4868 233.708 50.4868 233.708C50.4868 233.708 65.516 239.707 89.6093 224.877C103.559 213.205 115.986 199.826 126.599 185.055C126.599 185.055 103.272 195.052 88.9095 197.218C82.6687 198.217 76.2918 197.968 70.148 196.485" fill="#D4D626"/>
<path d="M129.699 162.028C113.203 145.666 104.706 126.305 108.705 102.978C110.404 91.4819 115.963 80.9057 124.467 72.9861C128.699 69.1205 130.932 69.1538 135.231 72.9861C142.503 79.8374 147.543 88.7212 149.693 98.479C154.092 114.408 145.394 133.869 140.962 142.967C137.58 149.533 133.819 155.898 129.699 162.028Z" fill="#D4D626"/>
<path d="M189.517 196.485C194.343 199.67 198.667 203.556 202.347 208.015C214.51 221.345 209.312 233.675 209.312 233.675C209.312 233.675 194.083 239.607 170.156 224.877C156.16 213.213 143.688 199.834 133.033 185.055C133.033 185.055 156.36 195.052 170.723 197.218C176.963 198.217 183.34 197.968 189.484 196.485" fill="#D4D626"/>
<path d="M181.89 56.6242C171.293 43.6945 157.564 62.5559 151.899 71.3201C158.454 81.2266 163.235 92.1984 166.028 103.744C167.919 111.038 169.036 118.511 169.361 126.038C173.589 119.242 177.107 112.028 179.858 104.511C185.823 88.5487 188.889 67.2546 181.89 56.6242Z" fill="#D4D626"/>
<path d="M91.2768 112.276C93.5189 97.5935 99.0433 83.6059 107.439 71.3539C101.874 62.5897 88.111 43.6616 77.4473 56.6247C70.4159 67.255 73.4817 88.5491 79.3134 104.511C82.0118 111.866 85.4391 118.933 89.5439 125.605C89.8829 121.135 90.4613 116.685 91.2768 112.276V112.276Z" fill="#D4D626"/>
<path d="M120.07 54.4919C127.801 47.4272 131.867 47.4938 139.698 54.4919C142.715 57.2101 145.512 60.1629 148.062 63.3228C151.628 44.8279 132.2 26.9995 129.401 26.9995C126.602 26.9995 107.44 48.1936 111.606 63.3228C114.218 60.1853 117.046 57.2345 120.07 54.4919V54.4919Z" fill="#D4D626"/>
<path d="M129.699 162.028C113.203 145.666 104.706 126.305 108.705 102.978C110.404 91.4819 115.963 80.9057 124.467 72.9861C128.699 69.1205 130.932 69.1538 135.231 72.9861C142.503 79.8374 147.543 88.7212 149.693 98.479C154.892 119.706 150.726 140.934 129.699 162.328C130.199 160.995 153.026 127.004 142.595 101.478C141.024 97.0004 138.042 93.1533 134.098 90.5145C132.365 89.1457 130.16 88.5206 127.966 88.7768C125.773 89.033 123.771 90.1495 122.401 91.8808C119.555 94.9874 117.356 98.629 115.931 102.594C114.507 106.559 113.885 110.767 114.103 114.974C114.103 131.836 120.501 146.666 128.866 160.828L129.699 162.028Z" fill="#BEA02F"/>
<path d="M146.031 170.659C157.794 171.392 169.591 172.492 181.088 172.625C190.842 172.894 200.548 171.171 209.613 167.56C215.395 165.486 220.429 161.74 224.076 156.796C227.408 151.998 226.841 148.932 221.776 145.866C215.937 142.59 209.255 141.129 202.582 141.667C186.819 142.267 172.59 147.932 158.794 154.997C152.962 158.063 147.297 161.462 141.265 164.428C144.831 161.495 148.33 158.396 152.029 155.63C161.797 147.93 172.761 141.885 184.487 137.735C207.38 130.204 228.674 132.603 247.802 147.732C248.465 148.349 249.078 149.018 249.635 149.732C243.881 159.134 236.035 167.082 226.708 172.958C215.543 180.024 202.487 183.512 189.285 182.956C177.993 182.532 166.88 179.988 156.528 175.458C153.095 173.825 149.463 172.225 146.031 170.659Z" fill="#BEA02F"/>
<path d="M114.342 170.426C102.579 171.159 89.9488 172.492 78.452 172.625C68.6981 172.894 58.9917 171.171 49.9266 167.56C44.1934 165.463 39.208 161.719 35.5973 156.796C32.2649 151.998 32.8314 148.932 37.8966 145.866C43.7356 142.59 50.418 141.129 57.0913 141.667C72.8536 142.267 87.083 147.932 100.879 154.997C106.711 158.063 112.376 161.462 118.408 164.428C114.842 161.495 111.343 158.396 107.644 155.63C97.8763 147.93 86.9114 141.885 75.1863 137.735C52.2926 130.204 30.9986 132.603 11.8705 147.732C11.2081 148.35 10.5953 149.018 10.0377 149.732C15.7544 159.119 23.5532 167.066 32.8314 172.958C43.9968 180.024 57.0531 183.512 70.2543 182.956C81.547 182.532 92.6592 179.988 103.012 175.458C106.411 173.825 110.776 171.992 114.342 170.426Z" fill="#BEA02F"/>
<path d="M70.1518 196.486C69.8186 197.885 63.487 213.614 74.5506 211.748C95.3781 208.416 126.636 185.089 126.636 185.089C126.636 185.089 112.107 211.115 90.4128 225.611C66.3195 240.44 49.091 235.042 49.091 235.042C47.9329 230.193 48.0255 225.13 49.3604 220.327C50.6952 215.524 53.2284 211.138 56.7222 207.583C60.6309 203.246 65.1558 199.507 70.1518 196.486Z" fill="#BEA02F"/>
<path d="M189.517 196.486C189.851 197.885 196.182 213.614 185.119 211.748C164.291 208.416 133.033 185.089 133.033 185.089C133.033 185.089 147.429 211.115 169.223 225.611C193.316 240.44 210.545 235.042 210.545 235.042C211.703 230.193 211.61 225.13 210.275 220.327C208.941 215.524 206.408 211.138 202.914 207.583C199.015 203.248 194.502 199.509 189.517 196.486V196.486Z" fill="#BEA02F"/>
<path d="M96.4735 65.5546C90.3752 63.9884 86.4763 66.4543 84.5102 72.4527C80.178 86.0489 87.6093 114.408 89.742 125.571C85.5603 118.941 82.129 111.866 79.5115 104.477C73.7132 88.5149 70.614 67.2208 77.6454 56.5904C90.2752 41.4946 105.938 68.787 107.637 71.3197C104.336 68.6752 100.541 66.7153 96.4735 65.5546Z" fill="#BEA02F"/>
<path d="M163.058 65.5552C169.156 63.989 173.055 66.455 175.021 72.4533C179.353 86.0495 171.689 114.875 169.49 126.038C173.768 119.27 177.288 112.05 179.987 104.511C185.785 88.5488 188.884 67.2548 181.853 56.6244C168.856 40.7621 153.594 68.7877 151.861 71.3203C155.173 68.6727 158.979 66.7127 163.058 65.5552V65.5552Z" fill="#BEA02F"/>
<path d="M129.767 38.4957C136.432 38.4957 143.896 45.9936 148.462 57.3571C147.096 38.0625 136.065 23 129.767 23C123.469 23 112.439 38.0625 111.072 57.3571C115.604 45.9936 123.069 38.4957 129.767 38.4957Z" fill="#BEA02F"/>
</svg>
