<svg width="165" height="66" viewBox="0 0 165 66" fill="none" xmlns="http://www.w3.org/2000/svg">
<path d="M0.715425 33.0189C0.709106 33.0125 0.702873 33.0062 0.696724 33C0.702873 32.9938 0.709106 32.9875 0.715425 32.9811C0.951312 32.7427 1.30534 32.3916 1.775 31.9439C2.71434 31.0486 4.11603 29.7669 5.95993 28.2276C9.64799 25.1488 15.1035 21.0408 22.1651 16.9322C36.2888 8.71469 56.8276 0.5 82.5 0.5C108.172 0.5 128.711 8.71469 142.835 16.9322C149.897 21.0408 155.352 25.1488 159.04 28.2276C160.884 29.7669 162.286 31.0486 163.225 31.9439C163.695 32.3916 164.049 32.7427 164.285 32.9811C164.291 32.9875 164.297 32.9938 164.303 33C164.297 33.0062 164.291 33.0125 164.285 33.0189C164.049 33.2573 163.695 33.6084 163.225 34.056C162.286 34.9514 160.884 36.2331 159.04 37.7724C155.352 40.8512 149.897 44.9592 142.835 49.0678C128.711 57.2853 108.172 65.5 82.5 65.5C56.8276 65.5 36.2888 57.2853 22.1651 49.0678C15.1035 44.9592 9.64799 40.8512 5.95993 37.7724C4.11603 36.2331 2.71434 34.9514 1.775 34.056C1.30534 33.6084 0.951312 33.2573 0.715425 33.0189Z" stroke="black"/>
</svg>
