<svg width="598" height="241" viewBox="0 0 598 241" fill="none" xmlns="http://www.w3.org/2000/svg">
<path d="M1.69201 126.59C1.25552 126.163 0.926674 125.836 0.706701 125.615C0.919102 125.387 1.23673 125.049 1.65859 124.608C2.50705 123.721 3.7771 122.419 5.46061 120.759C8.82764 117.439 13.8484 112.691 20.4577 106.981C33.6766 95.5626 53.2485 80.3018 78.6527 64.9421C129.461 34.2223 203.589 3.11223 296.879 1.53927C390.169 -0.0336884 465.303 28.5597 517.119 57.5491C543.026 72.0436 563.102 86.6359 576.698 97.6025C583.496 103.086 588.674 107.662 592.151 110.866C593.889 112.469 595.203 113.728 596.081 114.585C596.517 115.012 596.846 115.339 597.066 115.56C596.853 115.788 596.536 116.126 596.114 116.567C595.266 117.454 593.995 118.757 592.312 120.416C588.945 123.736 583.924 128.485 577.315 134.194C564.096 145.613 544.524 160.873 519.12 176.233C468.311 206.953 394.183 238.063 300.894 239.636C207.604 241.209 132.469 212.615 80.6538 183.626C54.7463 169.131 34.671 154.539 21.0747 143.573C14.2766 138.089 9.09867 133.513 5.62163 130.309C3.88312 128.707 2.56988 127.448 1.69201 126.59Z" stroke="#D4D626"/>
</svg>
