<svg width="130" height="134" viewBox="0 0 130 134" fill="none" xmlns="http://www.w3.org/2000/svg">
<path fill-rule="evenodd" clip-rule="evenodd" d="M46.7812 62.6462L72.4822 54.9072C73.2506 54.6759 74.0856 54.8867 74.6548 55.4559C75.224 56.025 75.4348 56.86 75.2034 57.6283L67.4618 83.3293C67.2264 84.1108 66.4011 84.5511 65.6185 84.3125C65.2528 84.2011 64.9438 83.9528 64.7561 83.6195L59.9809 75.1428L65.2265 64.8831L54.9374 70.0999L46.4918 65.3522C45.7782 64.951 45.5226 64.0487 45.9209 63.3367C46.1073 63.0037 46.4155 62.7563 46.7812 62.6462Z" fill="black"/>
<path d="M60.5443 18.1219C59.8324 17.7532 59.2145 17.2262 58.738 16.5814L59.2615 16.2135C59.6747 16.6376 60.1553 16.9903 60.6837 17.2574C61.3278 17.5462 62.0289 17.6853 62.7345 17.6644C64.8869 17.6842 65.9707 16.8764 65.9861 15.2411C66.0014 13.6058 64.801 12.7716 62.3848 12.7385L61.2213 12.727L61.2302 11.6929L62.3937 11.7045C63.4447 11.7138 64.248 11.5276 64.8037 11.1459C65.0795 10.9516 65.3014 10.6903 65.4487 10.3868C65.596 10.0832 65.6638 9.74722 65.6458 9.41029C65.6672 9.08953 65.6153 8.76812 65.4941 8.47038C65.3728 8.17265 65.1854 7.9064 64.9461 7.69182C64.423 7.2668 63.7642 7.0448 63.0906 7.06661C62.2453 7.02569 61.4118 7.27793 60.731 7.78068C60.4259 8.01334 60.1758 8.31032 59.9984 8.65053C59.821 8.99073 59.7207 9.36582 59.7046 9.74916L59.1875 9.7447C59.1813 9.13095 59.2247 8.5177 59.3172 7.91093C59.3927 7.52832 59.5852 7.17863 59.8681 6.91028C60.4625 6.30843 61.6698 6.0153 63.4899 6.03088C64.6473 6.0003 65.7914 6.28302 66.8013 6.84917C67.6833 7.39004 68.1189 8.25111 68.1081 9.43238C68.1181 9.76657 68.0612 10.0994 67.9407 10.4112C67.8202 10.7231 67.6386 11.0077 67.4065 11.2484C66.8736 11.7573 66.2077 12.1052 65.4856 12.252C66.3049 12.3874 67.0655 12.7634 67.6706 13.3321C67.9214 13.5835 68.1181 13.8835 68.2485 14.2139C68.3788 14.5442 68.4401 14.8977 68.4285 15.2526C68.4072 17.5773 66.674 18.7237 63.2289 18.6917C62.3019 18.7134 61.3826 18.5183 60.5443 18.1219Z" fill="black"/>
<path d="M72.1143 19.0602C71.6123 18.6845 71.2216 18.1796 70.9839 17.5994C70.7199 16.8942 70.696 16.1215 70.9161 15.4013C71.0364 14.815 71.3378 14.2814 71.7778 13.8757C72.2178 13.4701 72.7742 13.213 73.3683 13.1407C74.6822 12.9051 76.2907 13.0292 78.1939 13.5131L78.944 13.705C79.3531 12.0593 79.4165 10.878 79.134 10.161C78.9841 9.80503 78.7492 9.49118 78.45 9.24687C78.1507 9.00257 77.7963 8.83523 77.4175 8.75949C76.7901 8.56654 76.1183 8.57279 75.4946 8.77738C74.9628 8.98021 74.5049 9.44648 74.1209 10.1762L72.9926 9.89013C73.0978 9.44217 73.2456 9.00532 73.4341 8.58554C73.599 8.26103 73.8555 7.99199 74.1717 7.81172C74.687 7.56483 75.2619 7.4696 75.8292 7.53715C76.6128 7.57916 77.3901 7.70008 78.1494 7.89805C79.503 8.24217 80.4797 8.87847 81.0796 9.80694C81.6795 10.7354 81.7188 12.2256 81.1974 14.2774L79.4824 21.0278L78.2312 20.7101L77.6376 19.3557L77.5116 19.3244C77.0452 19.6614 76.5045 19.8813 75.9353 19.9656C75.1732 20.0783 74.3959 20.0269 73.6552 19.8148C73.0972 19.6664 72.5737 19.41 72.1143 19.0602ZM76.5517 18.9268C77.0277 18.7262 77.4622 18.4387 77.8331 18.0791L78.6915 14.6976L77.9414 14.5056C76.7063 14.1915 75.6713 14.1732 74.8363 14.4508C74.4664 14.5459 74.1286 14.738 73.8579 15.0074C73.5872 15.2767 73.3933 15.6135 73.2964 15.9829C73.1922 16.3044 73.1597 16.6448 73.2012 16.9802C73.2427 17.3156 73.3572 17.6378 73.5367 17.9242C73.8978 18.4537 74.4466 18.8261 75.072 18.9661C75.5581 19.1107 76.0779 19.0946 76.5542 18.9203L76.5517 18.9268Z" fill="black"/>
<path d="M86.965 14.3058C87.3264 13.7401 87.5424 13.094 87.5939 12.4247C87.5867 11.9382 87.2673 11.5201 86.6355 11.1702L86.4087 11.0451L86.6593 10.5945L97.0537 16.3576L91.1621 26.976L89.1299 25.8489L94.5203 16.1316L90.0019 13.6241L84.6087 23.3448L82.5764 22.2177L86.965 14.3058Z" fill="black"/>
<path d="M100.292 22.6517C100.791 22.2068 101.174 21.6456 101.405 21.0178C101.53 20.5474 101.335 20.0579 100.819 19.5493L100.541 19.2624L100.904 18.895L102.468 20.4379C102.835 20.7609 103.124 21.1623 103.314 21.6124C103.368 21.7982 103.383 21.993 103.359 22.1849C103.335 22.3768 103.273 22.5619 103.175 22.7289C102.84 23.2992 102.425 23.8185 101.942 24.271L97.2259 29.0661L107.987 25.8904L109.642 27.5249L101.112 36.1671L99.4572 34.5326L106.354 27.5358L95.5935 30.7115L93.9384 29.077L100.292 22.6517Z" fill="black"/>
<path d="M104.413 40.0355C104.457 39.027 104.797 38.0538 105.39 37.2372C106.741 35.4656 108.734 34.2959 110.939 33.9802C111.943 33.8543 112.962 34.0275 113.869 34.478C114.849 34.9945 115.654 35.7901 116.182 36.7642C117.14 38.3977 117.513 39.6275 117.298 40.4534C117.195 40.8514 116.967 41.2057 116.647 41.4642C116.036 41.9231 115.394 42.3395 114.726 42.7104L114.463 42.2644C115.35 41.6646 115.874 40.9669 116.038 40.1713C116.19 39.3257 116.016 38.4536 115.549 37.7322C115.291 37.2385 114.906 36.8229 114.433 36.5288C113.96 36.2347 113.417 36.073 112.86 36.0604C111.694 36.0144 110.435 36.3884 109.083 37.1823C107.731 37.9762 106.79 38.8933 106.261 39.9338C106.001 40.4261 105.877 40.9794 105.904 41.5358C105.93 42.0922 106.105 42.6313 106.411 43.097C106.768 43.7642 107.298 44.3233 107.945 44.7154C108.61 45.0593 109.342 45.253 110.09 45.2829L110.016 45.9204C109.034 45.9526 108.061 45.7154 107.203 45.2345C106.392 44.7209 105.723 44.0105 105.259 43.1692C104.674 42.2312 104.379 41.1407 104.413 40.0355Z" fill="black"/>
<path d="M109.11 50.3871C109.181 49.7598 109.421 49.1637 109.806 48.6631C110.28 48.0759 110.934 47.662 111.668 47.4858C112.234 47.2923 112.847 47.2814 113.419 47.4547C113.992 47.628 114.495 47.9768 114.859 48.4518C115.73 49.4621 116.441 50.9095 116.992 52.7942L117.209 53.5377C118.829 53.0633 119.872 52.5158 120.338 51.8954C120.568 51.5839 120.718 51.2206 120.775 50.8376C120.832 50.4545 120.794 50.0634 120.664 49.6984C120.511 49.0595 120.163 48.4838 119.669 48.0507C119.224 47.6967 118.587 47.5417 117.757 47.5856L117.43 46.4689C117.872 46.3294 118.327 46.2329 118.787 46.1806C119.158 46.1593 119.526 46.2481 119.846 46.4358C120.319 46.7537 120.691 47.1988 120.921 47.7195C121.282 48.4164 121.573 49.148 121.787 49.9031C122.179 51.2432 122.128 52.4033 121.635 53.3834C121.142 54.3636 119.879 55.1548 117.846 55.757L111.149 57.7158L110.787 56.4766L111.649 55.2807L111.611 55.1554C111.08 54.9267 110.612 54.5731 110.247 54.1246C109.763 53.5252 109.412 52.8293 109.219 52.0834C109.073 51.5303 109.036 50.9542 109.11 50.3871ZM111.486 54.1349C111.901 54.4428 112.37 54.671 112.868 54.8079L116.216 53.8396L115.999 53.0961C115.64 51.8724 115.129 50.9717 114.466 50.394C114.194 50.1238 113.855 49.9313 113.484 49.8364C113.113 49.7416 112.723 49.7478 112.355 49.8545C112.025 49.928 111.715 50.0729 111.448 50.279C111.18 50.4851 110.961 50.7474 110.806 51.0474C110.529 51.6262 110.484 52.2885 110.678 52.8999C110.808 53.3876 111.091 53.8207 111.486 54.1349Z" fill="black"/>
<path d="M122.892 63.7333L122.833 62.4414C122.834 61.7223 122.558 61.0306 122.062 60.5097C121.807 60.2663 121.503 60.0809 121.17 59.9661C120.837 59.8513 120.483 59.8099 120.133 59.8447L120.109 59.3274L121.658 59.259C123.036 59.1996 123.752 59.815 123.807 61.1051L124.207 70.2689L123.175 70.3133L122.988 66.0546L111.886 66.5463L111.784 64.2226L122.892 63.7333Z" fill="black"/>
<path d="M120.571 74.7092C121.219 74.8835 121.901 74.8947 122.555 74.7418C123.016 74.5881 123.318 74.1575 123.461 73.4501L123.539 73.0705L124.047 73.1735L123.613 75.3279C123.543 75.814 123.363 76.2779 123.089 76.6849C122.963 76.8313 122.808 76.9506 122.635 77.0358C122.462 77.1209 122.273 77.1702 122.08 77.1806C121.42 77.2128 120.758 77.1503 120.115 76.9949L118.34 76.6356L117.955 78.5361C117.63 80.1397 117.103 81.3479 116.375 82.1607C115.646 82.9735 114.641 83.2536 113.357 83.0011C112.071 82.7426 111.252 82.0903 110.901 81.0443C110.55 79.9983 110.536 78.6768 110.859 77.0796L111.697 72.9L120.571 74.7092ZM111.962 79.4188C112.279 80.0168 112.902 80.4106 113.833 80.6C114.763 80.7895 115.486 80.6692 116.001 80.2392C116.527 79.8102 116.891 79.0972 117.092 78.1004C117.147 77.8113 117.18 77.5184 117.19 77.2243C117.206 76.9508 117.2 76.6764 117.173 76.4038L112.35 75.4328C112.218 75.6731 112.105 75.9236 112.013 76.1818C111.908 76.4564 111.825 76.7386 111.764 77.0259C111.588 78.0203 111.653 78.8179 111.962 79.4188Z" fill="black"/>
<path d="M108.763 86.0703C109.627 85.5435 110.627 85.2835 111.639 85.323C113.863 85.449 115.949 86.4442 117.447 88.0939C118.111 88.8582 118.535 89.8016 118.666 90.8057C118.791 91.9107 118.585 93.0281 118.074 94.0155C117.257 95.7255 116.447 96.723 115.642 97.008C115.255 97.1454 114.834 97.1548 114.441 97.0348C113.719 96.7857 113.014 96.4875 112.332 96.1423L112.556 95.6756C113.549 96.0729 114.421 96.1171 115.171 95.8082C115.958 95.4618 116.583 94.8287 116.92 94.0376C117.185 93.5474 117.313 92.9949 117.292 92.438C117.271 91.8811 117.1 91.3401 116.798 90.8716C116.184 89.8837 115.168 89.0508 113.752 88.3728C112.335 87.6949 111.048 87.429 109.891 87.5754C109.337 87.6356 108.81 87.8435 108.364 88.1773C107.918 88.511 107.569 88.9584 107.355 89.4727C107.003 90.1415 106.838 90.8926 106.876 91.6474C106.963 92.3913 107.213 93.107 107.607 93.7438L107.036 94.0441C106.459 93.2481 106.11 92.3096 106.028 91.3299C105.998 90.3695 106.212 89.4172 106.649 88.5613C107.09 87.5392 107.826 86.672 108.763 86.0703Z" fill="black"/>
<path d="M104.474 93.6888L104.869 94.0205C104.575 94.4352 104.438 94.9418 104.485 95.4485C104.551 96.0549 104.684 96.652 104.882 97.229L105.969 100.159C106.58 99.6225 107.351 99.3021 108.163 99.2473C108.577 99.2195 108.993 99.2748 109.385 99.4099C109.777 99.545 110.139 99.7572 110.448 100.034C112.233 101.534 112.022 103.601 109.815 106.237L105.919 110.896L105.524 110.564C105.988 110.009 106.136 109.504 105.966 109.048C105.676 108.442 105.241 107.917 104.699 107.519L97.7621 101.709L99.2543 99.9239L103.221 103.237L104.513 101.689L103.128 98.5119C102.805 97.8315 102.638 97.0874 102.64 96.3342C102.683 95.6918 102.938 95.0819 103.366 94.6008C103.684 94.2398 104.058 93.9319 104.474 93.6888ZM104.496 103.262C104.351 103.496 104.225 103.74 104.119 103.993L107.688 106.978C107.918 106.83 108.136 106.663 108.34 106.481C108.563 106.289 108.772 106.081 108.963 105.857C110.234 104.336 110.206 103.025 108.881 101.922C107.556 100.819 106.26 101.026 104.994 102.544C104.806 102.77 104.637 103.011 104.487 103.263L104.496 103.262Z" fill="black"/>
<path d="M94.0064 116.201C94.2826 116.812 94.7055 117.346 95.2376 117.755C95.6483 118.016 96.1694 117.977 96.8008 117.638L97.028 117.518L97.2695 117.975L91.675 120.934C90.3953 121.612 89.2398 121.95 88.2087 121.949C87.809 121.931 87.4181 121.827 87.0624 121.643C86.7068 121.46 86.3948 121.203 86.1478 120.888C85.9007 120.573 85.7244 120.209 85.6309 119.82C85.5373 119.431 85.5288 119.027 85.6057 118.634C85.8503 117.933 86.3014 117.321 86.8996 116.881C86.0904 117.173 85.2142 117.225 84.376 117.032C84.0294 116.937 83.7069 116.769 83.4296 116.541C83.1524 116.312 82.9268 116.027 82.7677 115.705C82.1963 114.622 82.214 113.633 82.8208 112.738C83.4275 111.843 84.4859 111.001 85.9959 110.213L89.7665 108.219L94.0064 116.201ZM84.9575 114.557C85.7233 116.004 87.1337 116.184 89.1889 115.097L90.4446 114.431L88.2684 110.32C87.9983 110.37 87.7327 110.442 87.4743 110.536C87.195 110.629 86.9233 110.744 86.6617 110.879C84.7495 111.885 84.1814 113.111 84.9575 114.557ZM89.6716 116.009C88.9711 116.329 88.3891 116.862 88.0079 117.531C87.8661 117.814 87.7978 118.128 87.8093 118.444C87.8209 118.76 87.9119 119.068 88.074 119.339C88.2053 119.622 88.4035 119.869 88.6515 120.059C88.8994 120.248 89.1898 120.375 89.4975 120.427C90.1926 120.513 90.8967 120.367 91.4997 120.01C91.7581 119.869 92.0051 119.708 92.2386 119.529C92.4602 119.368 92.6685 119.189 92.8617 118.994L90.9177 115.341L89.6716 116.009Z" fill="black"/>
<path d="M70.8264 115.894C71.733 116.344 72.4862 117.053 72.9914 117.93C74.0703 119.88 74.3395 122.175 73.7411 124.321C73.4509 125.292 72.8806 126.155 72.1018 126.802C71.2336 127.494 70.1794 127.912 69.0732 128.003C67.1909 128.225 65.9154 128.071 65.2467 127.542C64.9235 127.289 64.6903 126.938 64.5818 126.542C64.4071 125.798 64.2835 125.043 64.2118 124.283L64.7263 124.231C64.9188 125.284 65.3464 126.045 66.0091 126.514C66.7213 126.995 67.5899 127.186 68.4383 127.05C68.994 127.013 69.5297 126.827 69.9894 126.513C70.4491 126.198 70.8159 125.766 71.0515 125.261C71.5629 124.212 71.7263 122.909 71.5418 121.353C71.3572 119.796 70.896 118.567 70.158 117.665C69.8126 117.23 69.3568 116.895 68.8381 116.695C68.3193 116.496 67.7566 116.439 67.2084 116.53C66.4543 116.589 65.7299 116.849 65.1111 117.284C64.5281 117.754 64.0557 118.347 63.7274 119.021L63.1685 118.696C63.5339 117.783 64.1419 116.988 64.9268 116.395C65.7235 115.859 66.6428 115.532 67.5996 115.445C68.6959 115.271 69.8191 115.427 70.8264 115.894Z" fill="black"/>
<path d="M59.4564 115.937C59.9995 116.258 60.444 116.722 60.7417 117.278C61.0807 117.949 61.1889 118.713 61.0495 119.452C60.9933 120.047 60.7517 120.61 60.3586 121.06C59.9656 121.511 59.441 121.827 58.8589 121.963C57.5803 122.34 55.9692 122.398 54.0255 122.137L53.2586 122.028C53.0243 123.701 53.0948 124.876 53.4699 125.554C53.6591 125.891 53.9282 126.177 54.2536 126.386C54.579 126.596 54.9507 126.722 55.3363 126.754C55.9815 126.878 56.6492 126.798 57.2473 126.527C57.7522 126.266 58.1557 125.748 58.4575 124.974L59.6078 125.135C59.5534 125.596 59.4548 126.05 59.3133 126.491C59.1806 126.838 58.9476 127.136 58.644 127.349C58.1613 127.66 57.5999 127.826 57.026 127.828C56.2428 127.871 55.4572 127.836 54.6812 127.721C53.2989 127.529 52.2588 127.004 51.5611 126.147C50.8633 125.289 50.6616 123.812 50.9559 121.716L51.907 114.794L53.1858 114.98L53.944 116.248L54.0718 116.267C54.4976 115.881 55.0097 115.604 55.565 115.458C56.3104 115.263 57.0889 115.229 57.8483 115.359C58.4168 115.445 58.9631 115.641 59.4564 115.937ZM55.0622 116.561C54.6104 116.812 54.2093 117.145 53.8795 117.543L53.3969 120.997L54.1638 121.105C55.427 121.282 56.4579 121.187 57.2567 120.821C57.6158 120.684 57.9313 120.452 58.1702 120.151C58.4091 119.85 58.5626 119.49 58.6146 119.109C58.6834 118.778 58.6787 118.436 58.6009 118.107C58.523 117.778 58.3738 117.47 58.1639 117.205C57.7469 116.718 57.1604 116.408 56.5233 116.337C56.0247 116.254 55.5125 116.333 55.0626 116.564L55.0622 116.561Z" fill="black"/>
<path d="M49.9662 114.291C50.1504 114.407 50.3248 114.538 50.4877 114.682L50.2329 115.278C49.3136 114.888 48.3363 115.119 47.301 115.971C46.2657 116.824 45.1134 118.741 43.8439 121.723C43.5437 122.321 43.4005 122.986 43.4281 123.655C43.494 124.142 43.8593 124.525 44.5238 124.804L44.3232 125.281L34.6627 121.202L39.4005 110.013L41.5429 110.921L37.2216 121.151L41.4115 122.932L42.2176 121.027C43.5963 117.776 44.875 115.675 46.0536 114.724C47.2322 113.773 48.3536 113.524 49.4176 113.975C49.6086 114.065 49.7921 114.171 49.9662 114.291Z" fill="black"/>
<path d="M34.8456 107.641C35.1712 108.614 35.2102 109.66 34.9579 110.654C34.6756 111.721 34.1751 112.717 33.488 113.58C32.801 114.443 31.9424 115.154 30.9665 115.669C30.0543 116.137 29.0268 116.334 28.0061 116.236C26.9352 116.118 25.923 115.687 25.0962 114.996C24.2368 114.346 23.5882 113.457 23.2316 112.441C22.9065 111.468 22.8675 110.422 23.1193 109.428C23.4015 108.361 23.9019 107.365 24.5889 106.502C25.276 105.639 26.1347 104.927 27.1107 104.413C28.0229 103.944 29.0504 103.748 30.0711 103.846C31.1388 103.966 32.1476 104.398 32.9716 105.087C33.8346 105.735 34.4866 106.624 34.8456 107.641ZM30.5794 105.386C29.8313 105.476 29.1175 105.752 28.5028 106.188C26.9908 107.225 25.8227 108.69 25.1479 110.395C24.8663 111.093 24.7632 111.85 24.8477 112.599C24.9213 113.228 25.241 113.803 25.7371 114.198C26.2332 114.593 26.8654 114.776 27.4956 114.706C28.2442 114.62 28.9595 114.349 29.5766 113.916C30.3334 113.408 31.0039 112.782 31.5627 112.062C32.138 111.358 32.5973 110.568 32.9231 109.719C33.2049 109.021 33.3081 108.264 33.2233 107.516C33.1497 106.886 32.8299 106.311 32.3339 105.916C31.8378 105.521 31.2056 105.338 30.5754 105.408L30.5794 105.386Z" fill="black"/>
<path d="M19.183 104.95C18.6149 105.308 18.1443 105.801 17.813 106.386C17.6118 106.826 17.7235 107.34 18.1483 107.927L18.3753 108.241L17.9556 108.545L16.6689 106.753C16.3592 106.372 16.1397 105.926 16.0267 105.448C16.0049 105.256 16.0222 105.061 16.0776 104.876C16.1331 104.69 16.2255 104.518 16.3493 104.37C16.774 103.863 17.2691 103.419 17.8195 103.052L19.8098 101.613L16.7815 97.4244L12.2797 100.692L10.9175 98.8076L18.2569 93.508C18.8249 93.1495 19.2956 92.6561 19.6269 92.0718C19.8281 91.6315 19.7163 91.1178 19.2916 90.5307L19.0646 90.2166L19.4843 89.9127L20.7697 91.6917C21.0796 92.0728 21.2991 92.5191 21.4119 92.9971C21.4341 93.1893 21.417 93.384 21.3615 93.5694C21.306 93.7548 21.2134 93.927 21.0893 94.0754C20.6649 94.5828 20.1698 95.0264 19.6191 95.3926L17.6288 96.8317L20.6571 101.021L25.1602 97.7653L26.5224 99.65L19.183 104.95Z" fill="black"/>
<path d="M43.9999 14.3055C22.424 22.0865 6.99994 42.742 6.99994 67C6.99994 71.6545 7.56778 76.1763 8.63796 80.5" stroke="black"/>
</svg>
