<svg width="149" height="150" viewBox="0 0 149 150" fill="none" xmlns="http://www.w3.org/2000/svg">
<path d="M62.6527 18.5687C62.5992 17.9036 62.3823 17.2621 62.0212 16.701C61.7226 16.3194 61.2176 16.1801 60.5062 16.2831L60.1321 16.3344L60.0501 15.8297L62.2131 15.5192C62.692 15.4229 63.1863 15.4363 63.6593 15.5582C63.8385 15.6274 64.002 15.7321 64.1397 15.8661C64.2775 16 64.3867 16.1605 64.4608 16.3378C64.7118 16.9459 64.8745 17.5869 64.9437 18.2412L65.3052 20.6521L70.3898 19.919L69.6029 14.4513L71.8909 14.1247L73.1742 23.0242C73.2277 23.6893 73.4446 24.3309 73.8057 24.8919C74.1023 25.2741 74.6072 25.4134 75.3207 25.3099L75.7038 25.256L75.7699 25.762L73.5928 26.0798C73.114 26.1763 72.6195 26.1629 72.1466 26.0407C71.9668 25.9703 71.8033 25.8638 71.666 25.728C71.5288 25.5921 71.4208 25.4296 71.3486 25.2504C71.0973 24.6424 70.9347 24.0013 70.8657 23.347L70.5152 20.9524L65.4306 21.6855L66.2176 27.1532L63.9295 27.4798L62.6527 18.5687Z" fill="#231F20"/>
<path d="M79.074 25.7264C78.2995 25.0631 77.7322 24.191 77.4397 23.2142C77.1217 22.1635 77.0389 21.0556 77.1973 19.9693C77.3252 18.8805 77.691 17.8332 78.2686 16.9015C78.8069 16.036 79.5825 15.3432 80.5031 14.9057C81.4777 14.4594 82.5625 14.311 83.6211 14.4791C84.6859 14.5945 85.6929 15.0214 86.5162 15.7064C87.291 16.3648 87.861 17.2312 88.1591 18.2032C88.4771 19.254 88.5598 20.3618 88.4015 21.4481C88.2735 22.5369 87.9078 23.5842 87.3301 24.5159C86.7918 25.3815 86.0162 26.0742 85.0956 26.5118C84.1146 26.9324 83.0382 27.0799 81.9802 26.9388C80.9222 26.7977 79.922 26.3732 79.0855 25.7102L79.074 25.7264ZM83.8609 25.4732C84.4569 25.0173 84.9295 24.4197 85.2357 23.7347C85.6222 22.9146 85.8749 22.0378 85.9841 21.1378C86.1142 20.2415 86.1001 19.3302 85.9422 18.4384C85.8248 17.7034 85.5272 17.009 85.076 16.4172C84.6914 15.9173 84.1245 15.59 83.4994 15.5068C82.8742 15.4235 82.2415 15.5911 81.7395 15.9729C81.1448 16.428 80.673 17.0242 80.3669 17.7076C79.9803 18.5277 79.7276 19.4044 79.6184 20.3045C79.4882 21.2018 79.5026 22.1142 79.6612 23.0069C79.7783 23.7419 80.076 24.4364 80.5274 25.0281C80.9121 25.528 81.4789 25.8553 82.104 25.9385C82.7292 26.0217 83.3619 25.8541 83.8639 25.4723L83.8609 25.4732Z" fill="#231F20"/>
<path d="M93.6317 20.0193C93.9299 19.4204 94.0752 18.757 94.0544 18.0883C93.9937 17.6089 93.6315 17.2313 92.9679 16.9557L92.7297 16.8583L92.9195 16.3864L98.7323 18.7957C100.062 19.3484 101.053 20.02 101.706 20.8106C102.023 21.1773 102.226 21.6293 102.288 22.1104C102.351 22.5915 102.27 23.0803 102.057 23.516C101.837 24.1288 101.383 24.6295 100.794 24.9083C100.101 25.1644 99.3474 25.2049 98.6311 25.0245C99.3665 25.4604 99.9608 26.0989 100.343 26.8637C100.489 27.1896 100.565 27.5429 100.565 27.9003C100.565 28.2576 100.489 28.6109 100.343 28.9368C99.8763 30.0607 99.1068 30.6736 98.0344 30.7755C96.962 30.8775 95.6438 30.6044 94.0796 29.9565L90.1801 28.3183L93.6317 20.0193ZM98.112 28.0065C98.7368 26.5051 97.9815 25.3108 95.8461 24.4235L94.5418 23.8809L92.7666 28.153C92.9748 28.3235 93.1961 28.4772 93.4286 28.6126C93.6726 28.769 93.9283 28.9064 94.1933 29.0236C96.1773 29.8416 97.4835 29.5026 98.112 28.0065ZM96.2398 23.4726C96.9298 23.8069 97.7075 23.9156 98.4628 23.7832C98.7693 23.7131 99.0533 23.5668 99.2883 23.3579C99.5233 23.1489 99.7018 22.884 99.8073 22.5878C99.9421 22.3078 100.007 21.999 99.995 21.6885C99.9835 21.3779 99.8963 21.0748 99.7411 20.8056C99.3677 20.2176 98.8099 19.7701 98.1549 19.5333C97.8834 19.4237 97.6037 19.3353 97.3185 19.269C97.0545 19.2008 96.7855 19.1538 96.5141 19.1284L94.9368 22.9231L96.2398 23.4726Z" fill="#231F20"/>
<path d="M102.197 34.0006C101.878 33.4604 101.713 32.8432 101.719 32.2157C101.745 31.4658 102.018 30.7455 102.497 30.1675C102.831 29.6752 103.311 29.3002 103.869 29.0955C104.428 28.8908 105.037 28.8667 105.609 29.0266C106.905 29.3062 108.335 30.0323 109.899 31.205L110.519 31.6765C111.523 30.3328 112.025 29.2746 112.023 28.5019C112.023 28.116 111.927 27.7362 111.745 27.3959C111.563 27.0556 111.3 26.7653 110.979 26.5507C110.473 26.1291 109.847 25.8765 109.19 25.8285C108.624 25.8124 108.024 26.0703 107.392 26.6022L106.466 25.9098C106.734 25.5344 107.037 25.1856 107.372 24.8684C107.653 24.631 107.998 24.4822 108.364 24.4403C108.932 24.406 109.497 24.5339 109.995 24.8092C110.699 25.1469 111.368 25.5548 111.99 26.0268C113.101 26.8577 113.756 27.8115 113.957 28.8883C114.157 29.9651 113.626 31.3481 112.364 33.0373L108.214 38.6096L107.186 37.8396L107.158 36.3737L107.055 36.2961C106.498 36.4277 105.918 36.4238 105.364 36.2846C104.621 36.0974 103.927 35.7535 103.328 35.2762C102.871 34.929 102.487 34.4956 102.197 34.0006ZM106.323 35.5582C106.837 35.5553 107.346 35.4567 107.824 35.2674L109.901 32.4872L109.281 32.0156C108.266 31.2568 107.322 30.846 106.449 30.7833C106.072 30.7309 105.688 30.7804 105.336 30.9264C104.985 31.0725 104.679 31.3099 104.45 31.614C104.232 31.8695 104.073 32.1697 103.984 32.4934C103.894 32.8171 103.877 33.1565 103.933 33.4875C104.063 34.1115 104.424 34.6629 104.945 35.03C105.335 35.3515 105.819 35.5379 106.324 35.5612L106.323 35.5582Z" fill="#231F20"/>
<path d="M109.554 39.6085L109.955 39.2872C110.302 39.6563 110.769 39.8889 111.272 39.9429C111.876 39.9955 112.484 39.9813 113.084 39.9007L116.152 39.4107C115.749 38.7104 115.587 37.8971 115.691 37.0959C115.744 36.6856 115.878 36.29 116.087 35.9326C116.295 35.5751 116.573 35.2631 116.904 35.0149C118.705 33.5654 120.68 34.1755 122.827 36.8452L126.61 41.5485L126.209 41.8699C125.758 41.3092 125.294 41.0675 124.818 41.1448C124.17 41.3077 123.574 41.6287 123.081 42.079L116.074 47.7157L114.626 45.915L118.63 42.6935L117.374 41.1332L114.017 41.8608C113.292 42.0437 112.534 42.062 111.801 41.9144C111.182 41.7482 110.636 41.3801 110.25 40.8686C109.952 40.4885 109.717 40.0631 109.554 39.6085ZM118.892 41.4595C119.091 41.6457 119.305 41.8156 119.532 41.9675L123.135 39.0673C123.036 38.8136 122.916 38.5681 122.777 38.3333C122.634 38.078 122.47 37.8342 122.288 37.6042C121.053 36.0702 119.768 35.8394 118.434 36.912C117.1 37.9845 117.048 39.2907 118.279 40.8304C118.466 41.0557 118.671 41.266 118.892 41.4595Z" fill="#231F20"/>
<path d="M124.553 70.7367C125.076 69.8779 125.841 69.1927 126.752 68.7669C128.775 67.8647 131.071 67.7935 133.146 68.5687C134.082 68.9378 134.888 69.575 135.464 70.4005C136.074 71.3171 136.398 72.3939 136.396 73.4948C136.454 75.3786 136.193 76.6287 135.613 77.2451C135.333 77.5429 134.965 77.7429 134.563 77.8156C133.811 77.925 133.053 77.9826 132.293 77.9881L132.277 77.4745C133.328 77.3763 134.118 77.0178 134.646 76.399C135.183 75.7345 135.447 74.8904 135.384 74.0383C135.395 73.4846 135.256 72.9383 134.984 72.4563C134.711 71.9743 134.314 71.5743 133.834 71.2981C132.84 70.7039 131.564 70.4308 130.006 70.4787C128.447 70.5267 127.19 70.8777 126.233 71.5319C125.771 71.8375 125.4 72.2613 125.157 72.7592C124.915 73.2572 124.811 73.811 124.855 74.363C124.848 75.1149 125.044 75.8547 125.422 76.505C125.838 77.122 126.384 77.6401 127.023 78.0225L126.654 78.5485C125.781 78.1088 125.045 77.4387 124.525 76.6108C124.065 75.7801 123.821 74.847 123.815 73.8973C123.741 72.7939 123.998 71.6935 124.553 70.7367Z" fill="#231F20"/>
<path d="M132.66 83.0601C133.299 83.2511 133.975 83.2814 134.629 83.1482C135.094 83.0159 135.407 82.5966 135.567 81.8903L135.625 81.6404L136.125 81.7575L133.451 93.2691L121.689 90.5364L122.212 88.2854L132.966 90.7896L134.134 85.7832L123.38 83.279L123.903 81.028L132.66 83.0601Z" fill="#231F20"/>
<path d="M120.019 94.5814C120.502 94.181 121.086 93.9209 121.706 93.8294C122.452 93.7378 123.206 93.8957 123.852 94.2785C124.39 94.5318 124.834 94.9473 125.123 95.4667C125.412 95.9861 125.531 96.583 125.462 97.1734C125.384 98.4915 124.89 100.017 123.981 101.751L123.621 102.433C125.107 103.215 126.23 103.544 126.989 103.419C127.368 103.356 127.727 103.201 128.033 102.967C128.338 102.733 128.582 102.428 128.742 102.078C129.079 101.516 129.233 100.863 129.183 100.21C129.11 99.6498 128.763 99.1007 128.141 98.5626L128.68 97.5413C129.095 97.7451 129.49 97.9887 129.859 98.2686C130.139 98.5086 130.342 98.8263 130.442 99.1814C130.565 99.7376 130.526 100.317 130.331 100.852C130.107 101.599 129.809 102.322 129.441 103.01C128.795 104.237 127.954 105.033 126.92 105.398C125.886 105.764 124.436 105.455 122.572 104.474L116.434 101.24L117.033 100.098L118.475 99.8403L118.534 99.7265C118.317 99.1976 118.231 98.6245 118.282 98.0553C118.352 97.2922 118.583 96.5527 118.961 95.8863C119.226 95.3873 119.585 94.9442 120.019 94.5814ZM119.122 98.9017C119.205 99.4084 119.382 99.8953 119.644 100.337L122.711 101.953L123.071 101.271C123.661 100.149 123.918 99.1534 123.841 98.2854C123.834 97.9047 123.725 97.5329 123.526 97.2086C123.327 96.8842 123.044 96.619 122.708 96.4406C122.422 96.2652 122.1 96.1547 121.767 96.1169C121.433 96.0791 121.095 96.115 120.777 96.222C120.181 96.4474 119.694 96.8905 119.412 97.4618C119.163 97.8981 119.062 98.403 119.122 98.9017Z" fill="#231F20"/>
<path d="M119.095 107.503L120.463 108.669L116.216 113.657L114.848 112.491L119.095 107.503Z" fill="#231F20"/>
<path d="M113.319 118.335C113.679 118.898 114.171 119.363 114.754 119.69C115.195 119.888 115.703 119.776 116.278 119.353L116.484 119.201L116.787 119.617L107.239 126.582L100.137 116.836L102.016 115.469L108.528 124.395L112.673 121.37L106.16 112.444L108.039 111.078L113.319 118.335Z" fill="#231F20"/>
<path d="M100.186 126.864C100.38 127.502 100.728 128.083 101.201 128.554C101.574 128.863 102.097 128.891 102.77 128.639L103.251 128.461L103.429 128.941L101.263 129.752C100.798 129.956 100.29 130.047 99.7832 130.017C99.3952 129.958 99.046 129.749 98.8111 129.435L98.6882 129.47C98.5071 129.997 98.2077 130.475 97.8129 130.868C97.2805 131.385 96.6388 131.776 95.9351 132.011C95.3114 132.272 94.6307 132.365 93.9601 132.281C93.2895 132.198 92.6521 131.942 92.1108 131.537C90.9389 130.705 90.0386 129.437 89.4099 127.735C88.7812 126.033 88.6418 124.475 88.9917 123.063C89.3561 121.663 90.284 120.685 91.7752 120.127C92.3157 119.915 92.8822 119.777 93.4595 119.716C93.9894 119.67 94.5225 119.672 95.052 119.723L93.1616 114.67L95.3282 113.859L100.186 126.864ZM91.0833 123.025C90.9304 124.105 91.1332 125.392 91.6917 126.885C92.2502 128.378 92.9287 129.481 93.7273 130.193C94.5316 130.926 95.3904 131.121 96.3039 130.779C96.8194 130.597 97.2761 130.279 97.6258 129.858C97.9754 129.438 98.2052 128.931 98.2907 128.391L95.4081 120.691C94.8398 120.636 94.3568 120.616 93.959 120.63C93.5813 120.629 93.2064 120.695 92.8516 120.825C92.3752 120.981 91.9543 121.271 91.6403 121.662C91.3264 122.053 91.1328 122.526 91.0833 123.025Z" fill="#231F20"/>
<path d="M83.0028 123.289C83.9042 123.764 84.65 124.489 85.1512 125.376C85.6802 126.337 86.0043 127.396 86.103 128.488C86.2016 129.581 86.0727 130.681 85.7243 131.721C85.39 132.684 84.7863 133.53 83.9849 134.159C83.1209 134.786 82.1035 135.167 81.0405 135.263C79.9774 135.359 78.9082 135.166 77.9461 134.704C77.0451 134.227 76.2995 133.503 75.7977 132.616C75.2687 131.656 74.9446 130.596 74.8459 129.504C74.7473 128.412 74.8762 127.311 75.2245 126.271C75.5588 125.309 76.1626 124.462 76.964 123.833C77.828 123.206 78.8454 122.825 79.9084 122.729C80.9715 122.633 82.0406 122.827 83.0028 123.289ZM78.3874 124.601C77.908 125.176 77.5797 125.862 77.4321 126.596C77.0627 128.373 77.2292 130.22 77.9107 131.902C78.1873 132.598 78.633 133.214 79.2074 133.694C79.6929 134.096 80.3177 134.289 80.9453 134.232C81.573 134.175 82.1526 133.872 82.5576 133.389C83.0371 132.814 83.3654 132.128 83.5129 131.394C83.8852 129.612 83.7181 127.759 83.033 126.072C82.7567 125.376 82.311 124.76 81.7364 124.28C81.2509 123.879 80.6261 123.685 79.9984 123.742C79.3708 123.799 78.7912 124.102 78.3861 124.585L78.3874 124.601Z" fill="#231F20"/>
<path d="M70.1386 132.016C69.9933 132.667 70.0111 133.344 70.1905 133.987C70.3622 134.439 70.803 134.721 71.5127 134.832L71.7673 134.873L71.6884 135.381L63.3147 134.06C62.0461 133.859 61.5187 133.082 61.7324 131.73L61.9732 130.207L62.4815 130.286C62.4079 130.629 62.409 130.983 62.485 131.325C62.5609 131.666 62.7098 131.988 62.9215 132.267C63.381 132.815 64.0339 133.165 64.7448 133.245L67.536 133.685L69.2602 122.774L71.543 123.136L70.1386 132.016Z" fill="#231F20"/>
<path d="M57.3981 129.393C57.1004 129.989 56.9543 130.649 56.9728 131.315C57.0295 131.796 57.3885 132.177 58.0498 132.46L58.5187 132.651L58.328 133.12L56.2008 132.212C55.7252 132.043 55.2963 131.764 54.9491 131.398C54.7062 131.09 54.5948 130.698 54.6389 130.307L54.5209 130.257C54.0261 130.512 53.4794 130.651 52.9227 130.662C52.1816 130.669 51.4486 130.509 50.7778 130.194C50.1467 129.952 49.5895 129.549 49.1614 129.026C48.7332 128.503 48.4487 127.878 48.336 127.211C48.0645 125.801 48.284 124.26 48.9946 122.589C49.7052 120.919 50.6791 119.696 51.9164 118.921C53.1452 118.161 54.4919 118.094 55.9565 118.718C56.4944 118.939 57.0001 119.231 57.4602 119.586C57.8763 119.919 58.2612 120.289 58.6101 120.691L60.7217 115.734L62.8489 116.642L57.3981 129.393ZM53.4588 120.335C52.6014 121.011 51.8606 122.085 51.2364 123.559C50.6123 125.032 50.3403 126.297 50.4206 127.354C50.4982 128.44 50.9855 129.174 51.8824 129.556C52.382 129.779 52.9326 129.863 53.4761 129.799C54.0195 129.735 54.5356 129.526 54.9699 129.193L58.198 121.634C57.8185 121.211 57.483 120.863 57.1914 120.589C56.9187 120.329 56.6023 120.118 56.2566 119.967C55.8048 119.751 55.2998 119.671 54.8031 119.736C54.3065 119.801 53.8394 120.01 53.4588 120.335Z" fill="#231F20"/>
<path d="M48.2882 114.945C48.5974 115.491 48.7514 116.111 48.7336 116.739C48.6939 117.488 48.4074 118.203 47.9187 118.772C47.5752 119.257 47.088 119.622 46.5258 119.816C45.9636 120.009 45.3548 120.021 44.7853 119.85C43.4952 119.543 42.0788 118.789 40.5361 117.586L39.9281 117.111C38.899 118.436 38.3773 119.484 38.3632 120.254C38.358 120.642 38.4484 121.024 38.6264 121.368C38.8044 121.712 39.0645 122.006 39.3836 122.225C39.879 122.651 40.4945 122.913 41.1451 122.975C41.71 123.002 42.3135 122.755 42.9556 122.233L43.8706 122.945C43.5959 123.314 43.2864 123.656 42.9461 123.966C42.6603 124.198 42.3122 124.341 41.9454 124.377C41.3764 124.401 40.8122 124.262 40.3191 123.977C39.6201 123.628 38.9581 123.208 38.3434 122.725C37.2386 121.877 36.6009 120.911 36.4306 119.826C36.2602 118.74 36.8167 117.367 38.1003 115.707L42.3567 110.227L43.3709 111.014L43.3725 112.478L43.4725 112.556C44.0314 112.435 44.6112 112.45 45.163 112.6C45.9024 112.801 46.5902 113.158 47.1805 113.646C47.6311 114.002 48.0075 114.444 48.2882 114.945ZM44.1915 113.307C43.6775 113.301 43.1668 113.39 42.6855 113.57L40.5497 116.312L41.1577 116.787C42.1585 117.565 43.0944 117.994 43.9654 118.072C44.3417 118.132 44.7271 118.09 45.0816 117.95C45.4361 117.81 45.7468 117.579 45.9814 117.278C46.2041 117.027 46.369 116.73 46.4643 116.408C46.5597 116.086 46.5832 115.747 46.5333 115.414C46.4149 114.788 46.063 114.231 45.5488 113.854C45.1666 113.531 44.6908 113.34 44.1915 113.307Z" fill="#231F20"/>
<path d="M33.1136 99.6387C32.889 100.603 32.2005 101.501 31.0481 102.332L26.5634 105.55L36.6554 103.517L36.9554 103.933L31.6931 113.11L39.5089 107.48L40.1088 108.314L30.3078 115.37L28.8796 113.388L33.507 105.306L24.3778 107.137L23.023 105.255L29.6917 100.443C30.4529 99.9173 31.0869 99.2279 31.5474 98.4255C31.9658 97.6716 32.0117 97.0733 31.685 96.6307L32.1018 96.3307C33.0016 97.5736 33.3388 98.6763 33.1136 99.6387Z" fill="#231F20"/>
<path d="M27.3914 84.7194C26.8704 85.5607 25.9309 86.1906 24.5728 86.6092L19.2945 88.2331L29.5072 89.5404L29.6478 90.0349L21.7331 97.0374L30.9406 94.2056L31.2428 95.1886L19.7031 98.7386L18.9849 96.4065L25.9553 90.2296L16.7212 89.049L16.0375 86.8269L23.8977 84.417C24.7918 84.1589 25.6165 83.703 26.3106 83.0831C26.9468 82.5027 27.1849 81.9501 27.0249 81.4255L27.5194 81.2849C27.9578 82.7432 27.9152 83.888 27.3914 84.7194Z" fill="#231F20"/>
<path d="M27.1323 78.4666C26.8973 79.0478 26.5081 79.5539 26.0066 79.9301C25.3984 80.3637 24.6644 80.5849 23.918 80.5596C23.3248 80.5941 22.7356 80.4415 22.2337 80.1234C21.7318 79.8052 21.3424 79.3376 21.1204 78.7863C20.5627 77.5844 20.2679 76.0086 20.2362 74.0589L20.2243 73.2881C18.546 73.3096 17.4014 73.5563 16.7905 74.028C16.486 74.2647 16.2443 74.5726 16.0869 74.9247C15.9294 75.2768 15.8609 75.6622 15.8874 76.0469C15.8672 76.6997 16.05 77.3426 16.4106 77.8871C16.7419 78.3458 17.3116 78.6632 18.1197 78.8394L18.125 79.9976C17.665 80.0134 17.2046 79.9849 16.75 79.9124C16.3902 79.8331 16.0618 79.6492 15.8061 79.3839C15.4344 78.954 15.1925 78.4274 15.1087 77.8653C14.9478 77.1013 14.8643 76.3231 14.8596 75.5423C14.8408 74.1547 15.1984 73.0543 15.9325 72.2409C16.6665 71.4275 18.0866 71.0064 20.1926 70.9777L27.1274 70.8847L27.1476 72.1747L26.005 73.0891L26.0061 73.2184C26.4528 73.5778 26.8063 74.0395 27.0367 74.5645C27.3406 75.2679 27.4905 76.0283 27.4764 76.7944C27.4723 77.369 27.3554 77.9371 27.1323 78.4666ZM25.8567 74.2424C25.5417 73.8369 25.1541 73.4935 24.7136 73.2296L21.2536 73.274L21.2655 74.0448C21.2824 75.312 21.5307 76.3104 22.0102 77.04C22.1976 77.3726 22.4709 77.6489 22.8016 77.8398C23.1322 78.0307 23.5081 78.1292 23.8899 78.1252C24.2251 78.1427 24.5601 78.0865 24.8713 77.9605C25.1825 77.8345 25.4623 77.6418 25.6909 77.396C26.1068 76.9129 26.3233 76.2897 26.2966 75.6528C26.3057 75.1486 26.1517 74.655 25.8576 74.2454L25.8567 74.2424Z" fill="#231F20"/>
<path d="M84.0584 68.8141C83.3085 69.519 77.8298 75.0018 77.1864 78.7062C76.5431 75.0059 71.0643 69.519 70.3145 68.8182C71.0234 63.5567 73.523 58.8648 77.1864 55.3776C80.8457 58.8607 83.3495 63.5526 84.0584 68.8141Z" fill="black"/>
<path d="M83.768 68.5232C82.8869 69.3509 82.0674 70.2524 81.2765 71.1662C80.0062 72.6332 78.7851 74.1822 77.8467 75.8869C77.3795 76.731 76.9616 77.6407 76.7936 78.5955C77.0558 78.5955 77.3222 78.5955 77.5844 78.5955C77.4328 77.7513 77.0886 76.9482 76.6952 76.1942C76.2526 75.3419 75.724 74.5346 75.1585 73.7519C74.1054 72.2972 72.9376 70.9245 71.7 69.6255C71.3435 69.2526 70.9829 68.8797 70.61 68.5232C70.6469 68.6543 70.6797 68.7895 70.7166 68.9207C71.2493 64.9909 72.8146 61.2168 75.2692 58.0943C75.9494 57.2297 76.687 56.4184 77.482 55.6603C77.2894 55.6603 77.0968 55.6603 76.9042 55.6603C79.7439 58.373 81.8584 61.8069 82.9607 65.581C83.2803 66.6751 83.5139 67.7897 83.6696 68.9207C83.6983 69.1419 83.981 69.2608 84.1736 69.2075C84.4113 69.1419 84.4892 68.9247 84.4605 68.7035C83.9073 64.6426 82.2559 60.7907 79.7357 57.5657C79.0473 56.6847 78.2933 55.8529 77.482 55.0825C77.3181 54.9268 77.064 54.9268 76.9042 55.0825C75.3061 56.611 73.9169 58.3648 72.8105 60.2785C71.6877 62.2208 70.8436 64.3352 70.3273 66.5235C70.1961 67.0808 70.0855 67.638 69.9994 68.2035C69.9544 68.4945 69.8191 68.8797 70.0445 69.1173C70.0855 69.1624 70.1347 69.2034 70.1757 69.2444C70.5158 69.5763 70.8477 69.9164 71.1755 70.2606C72.2778 71.4244 73.3309 72.6414 74.2816 73.9322C75.261 75.2599 76.2445 76.7228 76.6788 78.2963C76.728 78.4685 76.7649 78.6406 76.7976 78.8168C76.8673 79.2061 77.5189 79.2101 77.5885 78.8168C77.736 78.0013 78.0434 77.2842 78.4204 76.5671C78.8629 75.7229 79.3915 74.9198 79.9488 74.1494C80.961 72.748 82.1002 71.4367 83.2885 70.1828C83.6368 69.8181 83.9892 69.4534 84.3539 69.1051C84.7309 68.7403 84.1531 68.1626 83.768 68.5232Z" fill="black"/>
<path d="M90.9392 83.7095C87.4274 88.045 82.4691 90.5159 77.3223 90.9953C77.2854 90.9994 77.2526 91.0035 77.2157 91.0035C77.2075 91.0035 77.1993 91.0035 77.187 91.0076C77.1789 91.0076 77.1707 91.0076 77.1584 91.0035C77.1215 90.9994 77.0887 90.9953 77.0518 90.9953C71.905 90.5159 66.9467 88.0409 63.4349 83.7095C59.8617 79.3003 58.4848 73.8298 59.1569 68.6174C63.5456 68.9698 67.8154 70.7688 71.1838 73.9363C71.8354 74.551 72.4582 75.2148 73.036 75.9279C75.2488 78.657 76.6216 81.7959 77.1829 85.029C77.7443 81.7959 79.1171 78.657 81.3299 75.9279C81.9118 75.2107 82.5305 74.5469 83.1821 73.9322C86.5504 70.7688 90.8203 68.9657 95.209 68.6174C95.8893 73.8298 94.5124 79.3003 90.9392 83.7095Z" fill="black"/>
<path d="M90.6481 83.4186C88.6893 85.8281 86.202 87.7499 83.3622 89.012C82.0141 89.6103 80.588 90.0488 79.1374 90.3274C78.7809 90.3971 78.4244 90.4545 78.0679 90.5036C77.736 90.5487 77.3836 90.6184 77.0517 90.5897C76.3264 90.5241 75.6093 90.4094 74.8962 90.2619C71.9663 89.6431 69.1717 88.3605 66.8277 86.496C64.2994 84.4881 62.2874 81.8737 60.9966 78.9151C59.7468 76.0467 59.2305 72.875 59.4518 69.7607C59.4804 69.3796 59.5173 68.9985 59.5665 68.6174C59.4313 68.7527 59.2919 68.892 59.1567 69.0272C62.3776 69.2895 65.5124 70.3631 68.2251 72.1251C71.1304 74.0183 73.4989 76.6982 75.0479 79.8003C75.8879 81.4844 76.4657 83.2875 76.7935 85.1396C76.8632 85.5289 77.5147 85.533 77.5844 85.1396C78.1745 81.7795 79.6333 78.5996 81.8215 75.9811C83.981 73.3954 86.7921 71.3793 89.9555 70.2033C91.6479 69.5722 93.4223 69.1747 95.2212 69.0272C95.0859 68.892 94.9466 68.7527 94.8114 68.6174C95.3277 72.6742 94.5901 76.8417 92.6355 80.4436C92.0618 81.4926 91.398 82.4925 90.6481 83.4186C90.5087 83.5907 90.4801 83.8284 90.6481 83.9964C90.7915 84.1398 91.0865 84.1685 91.2259 83.9964C93.9591 80.6116 95.5695 76.4401 95.7703 72.0924C95.8235 70.9327 95.7744 69.7689 95.6269 68.6133C95.6023 68.4085 95.4588 68.1831 95.2171 68.2036C91.8528 68.4781 88.5705 69.5681 85.7348 71.4121C82.7148 73.3791 80.2274 76.1573 78.617 79.3823C77.7442 81.1279 77.1295 82.9965 76.7894 84.9184C77.0517 84.9184 77.318 84.9184 77.5803 84.9184C76.9656 81.4148 75.4126 78.1243 73.1301 75.3993C70.8763 72.7029 67.9259 70.6335 64.6354 69.4083C62.8734 68.7527 61.0253 68.3552 59.1526 68.2036C58.9108 68.1831 58.7674 68.4085 58.7428 68.6133C58.3331 71.8342 58.6978 75.1493 59.8287 78.1939C60.9884 81.3246 62.9185 84.1603 65.4181 86.3772C67.7784 88.467 70.6182 89.9955 73.6669 90.8069C74.3963 90.9995 75.1339 91.1511 75.8838 91.2617C76.2813 91.3191 76.6788 91.3683 77.0804 91.4051C77.4205 91.4379 77.7934 91.356 78.1294 91.3109C79.666 91.106 81.174 90.7372 82.6246 90.1881C85.5955 89.0653 88.2918 87.2582 90.435 84.9102C90.7095 84.611 90.9718 84.3037 91.2259 83.9923C91.3652 83.8202 91.3939 83.5825 91.2259 83.4145C91.0824 83.2752 90.7874 83.2465 90.6481 83.4186Z" fill="black"/>
<path d="M22 59.0414C26.5008 44.0164 37.2431 31.6827 51.2216 25.0414" stroke="black"/>
</svg>
