<svg width="250" height="65" viewBox="0 0 250 65" fill="none" xmlns="http://www.w3.org/2000/svg">
<path d="M1.157 10V0.77H8.125V10H7.215V1.576H2.067V10H1.157ZM13.7133 10.13C13.1499 10.13 12.6429 9.98267 12.1923 9.688C11.7503 9.39333 11.3993 9.02933 11.1393 8.596V12.769H10.2553V3.227H11.0483V4.54C11.3169 4.11533 11.6766 3.773 12.1273 3.513C12.5779 3.24433 13.0589 3.11 13.5703 3.11C14.0383 3.11 14.4673 3.20967 14.8573 3.409C15.2473 3.59967 15.5853 3.85967 15.8713 4.189C16.1573 4.51833 16.3783 4.89533 16.5343 5.32C16.6989 5.736 16.7813 6.16933 16.7813 6.62C16.7813 7.25267 16.6513 7.83767 16.3913 8.375C16.1399 8.90367 15.7846 9.32833 15.3253 9.649C14.8659 9.96967 14.3286 10.13 13.7133 10.13ZM13.4663 9.35C13.8389 9.35 14.1726 9.27633 14.4673 9.129C14.7619 8.973 15.0133 8.765 15.2213 8.505C15.4379 8.245 15.6026 7.95467 15.7153 7.634C15.8279 7.30467 15.8843 6.96667 15.8843 6.62C15.8843 6.256 15.8193 5.90933 15.6893 5.58C15.5679 5.25067 15.3903 4.96033 15.1563 4.709C14.9223 4.45767 14.6536 4.25833 14.3503 4.111C14.0469 3.96367 13.7176 3.89 13.3623 3.89C13.1369 3.89 12.9029 3.93333 12.6603 4.02C12.4176 4.10667 12.1836 4.23233 11.9583 4.397C11.7416 4.553 11.5596 4.73067 11.4123 4.93C11.2649 5.12933 11.1739 5.34167 11.1393 5.567V7.647C11.2779 7.96767 11.4643 8.258 11.6983 8.518C11.9323 8.76933 12.2009 8.973 12.5043 9.129C12.8163 9.27633 13.1369 9.35 13.4663 9.35ZM21.2037 10.13C20.7184 10.13 20.2677 10.039 19.8517 9.857C19.4357 9.66633 19.076 9.41067 18.7727 9.09C18.4694 8.76067 18.231 8.38367 18.0577 7.959C17.893 7.53433 17.8107 7.07933 17.8107 6.594C17.8107 5.96133 17.9537 5.38067 18.2397 4.852C18.5344 4.32333 18.9374 3.903 19.4487 3.591C19.96 3.27033 20.5407 3.11 21.1907 3.11C21.858 3.11 22.4387 3.27033 22.9327 3.591C23.4354 3.91167 23.8297 4.33633 24.1157 4.865C24.4017 5.385 24.5447 5.957 24.5447 6.581C24.5447 6.65033 24.5447 6.71967 24.5447 6.789C24.5447 6.84967 24.5404 6.89733 24.5317 6.932H18.7337C18.777 7.41733 18.9114 7.85067 19.1367 8.232C19.3707 8.60467 19.6697 8.90367 20.0337 9.129C20.4064 9.34567 20.8094 9.454 21.2427 9.454C21.6847 9.454 22.1007 9.34133 22.4907 9.116C22.8894 8.89067 23.1667 8.596 23.3227 8.232L24.0897 8.44C23.951 8.76067 23.7387 9.051 23.4527 9.311C23.1667 9.571 22.8287 9.77467 22.4387 9.922C22.0574 10.0607 21.6457 10.13 21.2037 10.13ZM18.7077 6.295H23.7127C23.678 5.801 23.5437 5.36767 23.3097 4.995C23.0844 4.62233 22.7854 4.332 22.4127 4.124C22.0487 3.90733 21.6457 3.799 21.2037 3.799C20.7617 3.799 20.3587 3.90733 19.9947 4.124C19.6307 4.332 19.3317 4.62667 19.0977 5.008C18.8724 5.38067 18.7424 5.80967 18.7077 6.295ZM25.1546 11.573V9.207H25.2716C25.4709 9.207 25.6529 9.14633 25.8176 9.025C25.9823 8.90367 26.1296 8.69133 26.2596 8.388C26.3896 8.08467 26.4936 7.66867 26.5716 7.14C26.6496 6.60267 26.7016 5.92667 26.7276 5.112L26.7926 3.227H31.1996V9.207H32.1096V11.573H31.3166V10H25.9346V11.573H25.1546ZM26.6106 9.207H30.3156V4.02H27.5856L27.5466 5.19C27.5206 5.996 27.4643 6.672 27.3776 7.218C27.2996 7.75533 27.1956 8.18433 27.0656 8.505C26.9443 8.817 26.7926 9.051 26.6106 9.207ZM32.7996 10.039V9.233C33.0336 9.233 33.2416 9.17233 33.4236 9.051C33.6056 8.921 33.7659 8.70433 33.9046 8.401C34.0519 8.09767 34.1689 7.68167 34.2556 7.153C34.3423 6.61567 34.3986 5.93533 34.4246 5.112L34.5026 3.227H38.8966V10H38.0126V4.02H35.2826L35.2566 5.19C35.2219 6.126 35.1483 6.91033 35.0356 7.543C34.9229 8.167 34.7626 8.661 34.5546 9.025C34.3553 9.389 34.1083 9.649 33.8136 9.805C33.5189 9.961 33.1809 10.039 32.7996 10.039ZM40.305 8.05C40.305 7.62533 40.4263 7.26133 40.669 6.958C40.9116 6.646 41.2453 6.40767 41.67 6.243C42.1033 6.06967 42.6016 5.983 43.165 5.983C43.4943 5.983 43.8366 6.009 44.192 6.061C44.5473 6.113 44.8636 6.191 45.141 6.295V5.723C45.141 5.151 44.972 4.696 44.634 4.358C44.296 4.02 43.828 3.851 43.23 3.851C42.866 3.851 42.5063 3.92033 42.151 4.059C41.8043 4.189 41.4403 4.384 41.059 4.644L40.721 4.02C41.163 3.71667 41.5963 3.49133 42.021 3.344C42.4456 3.188 42.879 3.11 43.321 3.11C44.153 3.11 44.8116 3.34833 45.297 3.825C45.7823 4.30167 46.025 4.96033 46.025 5.801V8.934C46.025 9.05533 46.051 9.14633 46.103 9.207C46.155 9.259 46.2373 9.28933 46.35 9.298V10C46.2546 10.0087 46.1723 10.0173 46.103 10.026C46.0336 10.0347 45.9816 10.0347 45.947 10.026C45.7303 10.0173 45.5656 9.948 45.453 9.818C45.3403 9.688 45.2796 9.54933 45.271 9.402L45.258 8.908C44.9546 9.298 44.5603 9.60133 44.075 9.818C43.5896 10.026 43.0956 10.13 42.593 10.13C42.1596 10.13 41.7653 10.039 41.41 9.857C41.0633 9.66633 40.7903 9.415 40.591 9.103C40.4003 8.78233 40.305 8.43133 40.305 8.05ZM44.842 8.57C44.9373 8.44867 45.011 8.33167 45.063 8.219C45.115 8.10633 45.141 8.00667 45.141 7.92V6.932C44.8463 6.81933 44.5386 6.73267 44.218 6.672C43.906 6.61133 43.5896 6.581 43.269 6.581C42.6363 6.581 42.125 6.70667 41.735 6.958C41.345 7.20933 41.15 7.55167 41.15 7.985C41.15 8.23633 41.215 8.47467 41.345 8.7C41.475 8.91667 41.6656 9.09867 41.917 9.246C42.1683 9.38467 42.463 9.454 42.801 9.454C43.2256 9.454 43.62 9.37167 43.984 9.207C44.3566 9.04233 44.6426 8.83 44.842 8.57ZM47.922 10V3.227H51.965V4.02H48.806V10H47.922ZM52.6575 8.05C52.6575 7.62533 52.7788 7.26133 53.0215 6.958C53.2642 6.646 53.5978 6.40767 54.0225 6.243C54.4558 6.06967 54.9542 5.983 55.5175 5.983C55.8468 5.983 56.1892 6.009 56.5445 6.061C56.8998 6.113 57.2162 6.191 57.4935 6.295V5.723C57.4935 5.151 57.3245 4.696 56.9865 4.358C56.6485 4.02 56.1805 3.851 55.5825 3.851C55.2185 3.851 54.8588 3.92033 54.5035 4.059C54.1568 4.189 53.7928 4.384 53.4115 4.644L53.0735 4.02C53.5155 3.71667 53.9488 3.49133 54.3735 3.344C54.7982 3.188 55.2315 3.11 55.6735 3.11C56.5055 3.11 57.1642 3.34833 57.6495 3.825C58.1348 4.30167 58.3775 4.96033 58.3775 5.801V8.934C58.3775 9.05533 58.4035 9.14633 58.4555 9.207C58.5075 9.259 58.5898 9.28933 58.7025 9.298V10C58.6072 10.0087 58.5248 10.0173 58.4555 10.026C58.3862 10.0347 58.3342 10.0347 58.2995 10.026C58.0828 10.0173 57.9182 9.948 57.8055 9.818C57.6928 9.688 57.6322 9.54933 57.6235 9.402L57.6105 8.908C57.3072 9.298 56.9128 9.60133 56.4275 9.818C55.9422 10.026 55.4482 10.13 54.9455 10.13C54.5122 10.13 54.1178 10.039 53.7625 9.857C53.4158 9.66633 53.1428 9.415 52.9435 9.103C52.7528 8.78233 52.6575 8.43133 52.6575 8.05ZM57.1945 8.57C57.2898 8.44867 57.3635 8.33167 57.4155 8.219C57.4675 8.10633 57.4935 8.00667 57.4935 7.92V6.932C57.1988 6.81933 56.8912 6.73267 56.5705 6.672C56.2585 6.61133 55.9422 6.581 55.6215 6.581C54.9888 6.581 54.4775 6.70667 54.0875 6.958C53.6975 7.20933 53.5025 7.55167 53.5025 7.985C53.5025 8.23633 53.5675 8.47467 53.6975 8.7C53.8275 8.91667 54.0182 9.09867 54.2695 9.246C54.5208 9.38467 54.8155 9.454 55.1535 9.454C55.5782 9.454 55.9725 9.37167 56.3365 9.207C56.7092 9.04233 56.9952 8.83 57.1945 8.57ZM63.2125 10.13C62.7272 10.13 62.2765 10.039 61.8605 9.857C61.4445 9.66633 61.0848 9.41067 60.7815 9.09C60.4782 8.76067 60.2398 8.38367 60.0665 7.959C59.9018 7.53433 59.8195 7.07933 59.8195 6.594C59.8195 5.96133 59.9625 5.38067 60.2485 4.852C60.5432 4.32333 60.9462 3.903 61.4575 3.591C61.9688 3.27033 62.5495 3.11 63.1995 3.11C63.8668 3.11 64.4475 3.27033 64.9415 3.591C65.4442 3.91167 65.8385 4.33633 66.1245 4.865C66.4105 5.385 66.5535 5.957 66.5535 6.581C66.5535 6.65033 66.5535 6.71967 66.5535 6.789C66.5535 6.84967 66.5492 6.89733 66.5405 6.932H60.7425C60.7858 7.41733 60.9202 7.85067 61.1455 8.232C61.3795 8.60467 61.6785 8.90367 62.0425 9.129C62.4152 9.34567 62.8182 9.454 63.2515 9.454C63.6935 9.454 64.1095 9.34133 64.4995 9.116C64.8982 8.89067 65.1755 8.596 65.3315 8.232L66.0985 8.44C65.9598 8.76067 65.7475 9.051 65.4615 9.311C65.1755 9.571 64.8375 9.77467 64.4475 9.922C64.0662 10.0607 63.6545 10.13 63.2125 10.13ZM60.7165 6.295H65.7215C65.6868 5.801 65.5525 5.36767 65.3185 4.995C65.0932 4.62233 64.7942 4.332 64.4215 4.124C64.0575 3.90733 63.6545 3.799 63.2125 3.799C62.7705 3.799 62.3675 3.90733 62.0035 4.124C61.6395 4.332 61.3405 4.62667 61.1065 5.008C60.8812 5.38067 60.7512 5.80967 60.7165 6.295ZM67.9044 10V3.227H68.8144L71.5054 7.894L74.2094 3.227H75.0804V10H74.2354V4.553L71.7914 8.791H71.2194L68.7494 4.553V10H67.9044ZM80.3331 10V3.227H85.7801V10H84.8961V4.02H81.2171V10H80.3331ZM90.6208 10.13C90.1354 10.13 89.6848 10.039 89.2688 9.857C88.8614 9.66633 88.5061 9.41067 88.2028 9.09C87.9081 8.76067 87.6784 8.388 87.5138 7.972C87.3491 7.54733 87.2668 7.101 87.2668 6.633C87.2668 6.14767 87.3491 5.697 87.5138 5.281C87.6784 4.85633 87.9124 4.48367 88.2158 4.163C88.5191 3.83367 88.8744 3.578 89.2818 3.396C89.6978 3.20533 90.1484 3.11 90.6338 3.11C91.1191 3.11 91.5654 3.20533 91.9728 3.396C92.3801 3.578 92.7354 3.83367 93.0388 4.163C93.3421 4.48367 93.5761 4.85633 93.7408 5.281C93.9054 5.697 93.9878 6.14767 93.9878 6.633C93.9878 7.101 93.9054 7.54733 93.7408 7.972C93.5761 8.388 93.3421 8.76067 93.0388 9.09C92.7441 9.41067 92.3888 9.66633 91.9728 9.857C91.5654 10.039 91.1148 10.13 90.6208 10.13ZM88.1638 6.646C88.1638 7.14867 88.2721 7.608 88.4888 8.024C88.7141 8.43133 89.0131 8.75633 89.3858 8.999C89.7584 9.233 90.1701 9.35 90.6208 9.35C91.0714 9.35 91.4831 9.22867 91.8558 8.986C92.2284 8.74333 92.5274 8.414 92.7528 7.998C92.9781 7.57333 93.0908 7.114 93.0908 6.62C93.0908 6.11733 92.9781 5.658 92.7528 5.242C92.5274 4.826 92.2284 4.49667 91.8558 4.254C91.4831 4.01133 91.0714 3.89 90.6208 3.89C90.1701 3.89 89.7584 4.01567 89.3858 4.267C89.0218 4.51833 88.7271 4.852 88.5018 5.268C88.2764 5.67533 88.1638 6.13467 88.1638 6.646ZM95.4532 10V3.227H100.9V10H100.016V4.02H96.3372V10H95.4532ZM106.313 10.13C105.75 10.13 105.243 9.98267 104.792 9.688C104.35 9.39333 103.999 9.02933 103.739 8.596V12.769H102.855V3.227H103.648V4.54C103.917 4.11533 104.276 3.773 104.727 3.513C105.178 3.24433 105.659 3.11 106.17 3.11C106.638 3.11 107.067 3.20967 107.457 3.409C107.847 3.59967 108.185 3.85967 108.471 4.189C108.757 4.51833 108.978 4.89533 109.134 5.32C109.299 5.736 109.381 6.16933 109.381 6.62C109.381 7.25267 109.251 7.83767 108.991 8.375C108.74 8.90367 108.384 9.32833 107.925 9.649C107.466 9.96967 106.928 10.13 106.313 10.13ZM106.066 9.35C106.439 9.35 106.772 9.27633 107.067 9.129C107.362 8.973 107.613 8.765 107.821 8.505C108.038 8.245 108.202 7.95467 108.315 7.634C108.428 7.30467 108.484 6.96667 108.484 6.62C108.484 6.256 108.419 5.90933 108.289 5.58C108.168 5.25067 107.99 4.96033 107.756 4.709C107.522 4.45767 107.253 4.25833 106.95 4.111C106.647 3.96367 106.317 3.89 105.962 3.89C105.737 3.89 105.503 3.93333 105.26 4.02C105.017 4.10667 104.783 4.23233 104.558 4.397C104.341 4.553 104.159 4.73067 104.012 4.93C103.865 5.12933 103.774 5.34167 103.739 5.567V7.647C103.878 7.96767 104.064 8.258 104.298 8.518C104.532 8.76933 104.801 8.973 105.104 9.129C105.416 9.27633 105.737 9.35 106.066 9.35ZM113.764 10.13C113.279 10.13 112.828 10.039 112.412 9.857C112.005 9.66633 111.65 9.41067 111.346 9.09C111.052 8.76067 110.822 8.388 110.657 7.972C110.493 7.54733 110.41 7.101 110.41 6.633C110.41 6.14767 110.493 5.697 110.657 5.281C110.822 4.85633 111.056 4.48367 111.359 4.163C111.663 3.83367 112.018 3.578 112.425 3.396C112.841 3.20533 113.292 3.11 113.777 3.11C114.263 3.11 114.709 3.20533 115.116 3.396C115.524 3.578 115.879 3.83367 116.182 4.163C116.486 4.48367 116.72 4.85633 116.884 5.281C117.049 5.697 117.131 6.14767 117.131 6.633C117.131 7.101 117.049 7.54733 116.884 7.972C116.72 8.388 116.486 8.76067 116.182 9.09C115.888 9.41067 115.532 9.66633 115.116 9.857C114.709 10.039 114.258 10.13 113.764 10.13ZM111.307 6.646C111.307 7.14867 111.416 7.608 111.632 8.024C111.858 8.43133 112.157 8.75633 112.529 8.999C112.902 9.233 113.314 9.35 113.764 9.35C114.215 9.35 114.627 9.22867 114.999 8.986C115.372 8.74333 115.671 8.414 115.896 7.998C116.122 7.57333 116.234 7.114 116.234 6.62C116.234 6.11733 116.122 5.658 115.896 5.242C115.671 4.826 115.372 4.49667 114.999 4.254C114.627 4.01133 114.215 3.89 113.764 3.89C113.314 3.89 112.902 4.01567 112.529 4.267C112.165 4.51833 111.871 4.852 111.645 5.268C111.42 5.67533 111.307 6.13467 111.307 6.646ZM121.717 10.13C120.625 10.13 119.797 9.79633 119.234 9.129C118.679 8.453 118.402 7.52133 118.402 6.334C118.402 5.49333 118.471 4.78267 118.61 4.202C118.748 3.62133 118.952 3.14467 119.221 2.772C119.489 2.39067 119.819 2.07867 120.209 1.836C120.607 1.59333 121.062 1.394 121.574 1.238L124.421 0.301999L124.499 1.069L121.756 1.966C121.236 2.13933 120.802 2.36033 120.456 2.629C120.109 2.89767 119.836 3.24 119.637 3.656C119.446 4.06333 119.32 4.59633 119.26 5.255C119.485 4.75233 119.832 4.36667 120.3 4.098C120.768 3.82067 121.309 3.682 121.925 3.682C122.583 3.682 123.142 3.81633 123.602 4.085C124.07 4.35367 124.425 4.72633 124.668 5.203C124.91 5.67967 125.032 6.23 125.032 6.854C125.032 7.51267 124.902 8.089 124.642 8.583C124.39 9.06833 124.018 9.44967 123.524 9.727C123.038 9.99567 122.436 10.13 121.717 10.13ZM121.717 9.35C122.488 9.35 123.082 9.129 123.498 8.687C123.922 8.23633 124.135 7.63833 124.135 6.893C124.135 6.165 123.927 5.57133 123.511 5.112C123.103 4.65267 122.505 4.423 121.717 4.423C121.266 4.423 120.859 4.51833 120.495 4.709C120.131 4.89967 119.84 5.177 119.624 5.541C119.416 5.905 119.312 6.35567 119.312 6.893C119.312 7.361 119.403 7.78133 119.585 8.154C119.775 8.52667 120.048 8.82133 120.404 9.038C120.759 9.246 121.197 9.35 121.717 9.35ZM129.405 10.13C128.92 10.13 128.469 10.039 128.053 9.857C127.646 9.66633 127.29 9.41067 126.987 9.09C126.692 8.76067 126.463 8.388 126.298 7.972C126.133 7.54733 126.051 7.101 126.051 6.633C126.051 6.14767 126.133 5.697 126.298 5.281C126.463 4.85633 126.697 4.48367 127 4.163C127.303 3.83367 127.659 3.578 128.066 3.396C128.482 3.20533 128.933 3.11 129.418 3.11C129.903 3.11 130.35 3.20533 130.757 3.396C131.164 3.578 131.52 3.83367 131.823 4.163C132.126 4.48367 132.36 4.85633 132.525 5.281C132.69 5.697 132.772 6.14767 132.772 6.633C132.772 7.101 132.69 7.54733 132.525 7.972C132.36 8.388 132.126 8.76067 131.823 9.09C131.528 9.41067 131.173 9.66633 130.757 9.857C130.35 10.039 129.899 10.13 129.405 10.13ZM126.948 6.646C126.948 7.14867 127.056 7.608 127.273 8.024C127.498 8.43133 127.797 8.75633 128.17 8.999C128.543 9.233 128.954 9.35 129.405 9.35C129.856 9.35 130.267 9.22867 130.64 8.986C131.013 8.74333 131.312 8.414 131.537 7.998C131.762 7.57333 131.875 7.114 131.875 6.62C131.875 6.11733 131.762 5.658 131.537 5.242C131.312 4.826 131.013 4.49667 130.64 4.254C130.267 4.01133 129.856 3.89 129.405 3.89C128.954 3.89 128.543 4.01567 128.17 4.267C127.806 4.51833 127.511 4.852 127.286 5.268C127.061 5.67533 126.948 6.13467 126.948 6.646ZM134.237 10V3.227H137.617C137.999 3.227 138.319 3.30933 138.579 3.474C138.839 3.63 139.034 3.83367 139.164 4.085C139.303 4.33633 139.372 4.605 139.372 4.891C139.372 5.255 139.286 5.58433 139.112 5.879C138.939 6.165 138.688 6.38167 138.358 6.529C138.748 6.64167 139.065 6.84533 139.307 7.14C139.55 7.43467 139.671 7.79 139.671 8.206C139.671 8.57 139.58 8.88633 139.398 9.155C139.225 9.42367 138.982 9.63167 138.67 9.779C138.367 9.92633 138.016 10 137.617 10H134.237ZM135.082 9.363H137.591C137.817 9.363 138.02 9.30667 138.202 9.194C138.393 9.07267 138.54 8.91667 138.644 8.726C138.757 8.53533 138.813 8.336 138.813 8.128C138.813 7.90267 138.761 7.699 138.657 7.517C138.553 7.32633 138.415 7.17467 138.241 7.062C138.068 6.94933 137.869 6.893 137.643 6.893H135.082V9.363ZM135.082 6.282H137.383C137.609 6.282 137.808 6.22133 137.981 6.1C138.155 5.97867 138.289 5.82267 138.384 5.632C138.48 5.44133 138.527 5.242 138.527 5.034C138.527 4.722 138.423 4.449 138.215 4.215C138.016 3.981 137.756 3.864 137.435 3.864H135.082V6.282ZM140.661 8.05C140.661 7.62533 140.783 7.26133 141.025 6.958C141.268 6.646 141.602 6.40767 142.026 6.243C142.46 6.06967 142.958 5.983 143.521 5.983C143.851 5.983 144.193 6.009 144.548 6.061C144.904 6.113 145.22 6.191 145.497 6.295V5.723C145.497 5.151 145.328 4.696 144.99 4.358C144.652 4.02 144.184 3.851 143.586 3.851C143.222 3.851 142.863 3.92033 142.507 4.059C142.161 4.189 141.797 4.384 141.415 4.644L141.077 4.02C141.519 3.71667 141.953 3.49133 142.377 3.344C142.802 3.188 143.235 3.11 143.677 3.11C144.509 3.11 145.168 3.34833 145.653 3.825C146.139 4.30167 146.381 4.96033 146.381 5.801V8.934C146.381 9.05533 146.407 9.14633 146.459 9.207C146.511 9.259 146.594 9.28933 146.706 9.298V10C146.611 10.0087 146.529 10.0173 146.459 10.026C146.39 10.0347 146.338 10.0347 146.303 10.026C146.087 10.0173 145.922 9.948 145.809 9.818C145.697 9.688 145.636 9.54933 145.627 9.402L145.614 8.908C145.311 9.298 144.917 9.60133 144.431 9.818C143.946 10.026 143.452 10.13 142.949 10.13C142.516 10.13 142.122 10.039 141.766 9.857C141.42 9.66633 141.147 9.415 140.947 9.103C140.757 8.78233 140.661 8.43133 140.661 8.05ZM145.198 8.57C145.294 8.44867 145.367 8.33167 145.419 8.219C145.471 8.10633 145.497 8.00667 145.497 7.92V6.932C145.203 6.81933 144.895 6.73267 144.574 6.672C144.262 6.61133 143.946 6.581 143.625 6.581C142.993 6.581 142.481 6.70667 142.091 6.958C141.701 7.20933 141.506 7.55167 141.506 7.985C141.506 8.23633 141.571 8.47467 141.701 8.7C141.831 8.91667 142.022 9.09867 142.273 9.246C142.525 9.38467 142.819 9.454 143.157 9.454C143.582 9.454 143.976 9.37167 144.34 9.207C144.713 9.04233 144.999 8.83 145.198 8.57ZM149.88 10V4.02H147.462V3.227H153.182V4.02H150.764V10H149.88ZM154.372 10V3.227H155.256V5.619H157.011C157.782 5.619 158.363 5.81833 158.753 6.217C159.152 6.607 159.351 7.12267 159.351 7.764C159.351 8.18 159.264 8.557 159.091 8.895C158.918 9.233 158.662 9.50167 158.324 9.701C157.995 9.90033 157.579 10 157.076 10H154.372ZM155.256 9.298H156.959C157.314 9.298 157.6 9.22867 157.817 9.09C158.034 8.94267 158.194 8.75633 158.298 8.531C158.402 8.297 158.454 8.04567 158.454 7.777C158.454 7.517 158.406 7.27867 158.311 7.062C158.224 6.83667 158.068 6.659 157.843 6.529C157.626 6.39033 157.323 6.321 156.933 6.321H155.256V9.298ZM164.033 10V3.227H164.917V6.139H168.791V3.227H169.675V10H168.791V6.932H164.917V10H164.033ZM171.079 8.05C171.079 7.62533 171.201 7.26133 171.443 6.958C171.686 6.646 172.02 6.40767 172.444 6.243C172.878 6.06967 173.376 5.983 173.939 5.983C174.269 5.983 174.611 6.009 174.966 6.061C175.322 6.113 175.638 6.191 175.915 6.295V5.723C175.915 5.151 175.746 4.696 175.408 4.358C175.07 4.02 174.602 3.851 174.004 3.851C173.64 3.851 173.281 3.92033 172.925 4.059C172.579 4.189 172.215 4.384 171.833 4.644L171.495 4.02C171.937 3.71667 172.371 3.49133 172.795 3.344C173.22 3.188 173.653 3.11 174.095 3.11C174.927 3.11 175.586 3.34833 176.071 3.825C176.557 4.30167 176.799 4.96033 176.799 5.801V8.934C176.799 9.05533 176.825 9.14633 176.877 9.207C176.929 9.259 177.012 9.28933 177.124 9.298V10C177.029 10.0087 176.947 10.0173 176.877 10.026C176.808 10.0347 176.756 10.0347 176.721 10.026C176.505 10.0173 176.34 9.948 176.227 9.818C176.115 9.688 176.054 9.54933 176.045 9.402L176.032 8.908C175.729 9.298 175.335 9.60133 174.849 9.818C174.364 10.026 173.87 10.13 173.367 10.13C172.934 10.13 172.54 10.039 172.184 9.857C171.838 9.66633 171.565 9.415 171.365 9.103C171.175 8.78233 171.079 8.43133 171.079 8.05ZM175.616 8.57C175.712 8.44867 175.785 8.33167 175.837 8.219C175.889 8.10633 175.915 8.00667 175.915 7.92V6.932C175.621 6.81933 175.313 6.73267 174.992 6.672C174.68 6.61133 174.364 6.581 174.043 6.581C173.411 6.581 172.899 6.70667 172.509 6.958C172.119 7.20933 171.924 7.55167 171.924 7.985C171.924 8.23633 171.989 8.47467 172.119 8.7C172.249 8.91667 172.44 9.09867 172.691 9.246C172.943 9.38467 173.237 9.454 173.575 9.454C174 9.454 174.394 9.37167 174.758 9.207C175.131 9.04233 175.417 8.83 175.616 8.57ZM178.696 10V3.227H179.58V9.22H182.479V3.227H183.376V9.22H186.262V3.227H187.146V10H178.696ZM189.822 12.834C189.675 12.834 189.523 12.808 189.367 12.756C189.22 12.7127 189.068 12.6477 188.912 12.561L189.237 11.937C189.333 11.989 189.419 12.0323 189.497 12.067C189.584 12.1017 189.675 12.119 189.77 12.119C189.996 12.119 190.208 12.0063 190.407 11.781C190.607 11.5557 190.797 11.2263 190.979 10.793L191.317 9.948L188.301 3.227H189.237L191.72 9.09L194.008 3.227H194.892L191.668 11.066C191.495 11.4733 191.313 11.807 191.122 12.067C190.932 12.327 190.728 12.5177 190.511 12.639C190.295 12.769 190.065 12.834 189.822 12.834ZM199.072 10V3.227H199.956V6.139H203.83V3.227H204.714V10H203.83V6.932H199.956V10H199.072ZM209.55 10.13C209.065 10.13 208.614 10.039 208.198 9.857C207.791 9.66633 207.436 9.41067 207.132 9.09C206.838 8.76067 206.608 8.388 206.443 7.972C206.279 7.54733 206.196 7.101 206.196 6.633C206.196 6.14767 206.279 5.697 206.443 5.281C206.608 4.85633 206.842 4.48367 207.145 4.163C207.449 3.83367 207.804 3.578 208.211 3.396C208.627 3.20533 209.078 3.11 209.563 3.11C210.049 3.11 210.495 3.20533 210.902 3.396C211.31 3.578 211.665 3.83367 211.968 4.163C212.272 4.48367 212.506 4.85633 212.67 5.281C212.835 5.697 212.917 6.14767 212.917 6.633C212.917 7.101 212.835 7.54733 212.67 7.972C212.506 8.388 212.272 8.76067 211.968 9.09C211.674 9.41067 211.318 9.66633 210.902 9.857C210.495 10.039 210.044 10.13 209.55 10.13ZM207.093 6.646C207.093 7.14867 207.202 7.608 207.418 8.024C207.644 8.43133 207.943 8.75633 208.315 8.999C208.688 9.233 209.1 9.35 209.55 9.35C210.001 9.35 210.413 9.22867 210.785 8.986C211.158 8.74333 211.457 8.414 211.682 7.998C211.908 7.57333 212.02 7.114 212.02 6.62C212.02 6.11733 211.908 5.658 211.682 5.242C211.457 4.826 211.158 4.49667 210.785 4.254C210.413 4.01133 210.001 3.89 209.55 3.89C209.1 3.89 208.688 4.01567 208.315 4.267C207.951 4.51833 207.657 4.852 207.431 5.268C207.206 5.67533 207.093 6.13467 207.093 6.646ZM214.383 10V3.227H217.763C218.144 3.227 218.465 3.30933 218.725 3.474C218.985 3.63 219.18 3.83367 219.31 4.085C219.449 4.33633 219.518 4.605 219.518 4.891C219.518 5.255 219.431 5.58433 219.258 5.879C219.085 6.165 218.833 6.38167 218.504 6.529C218.894 6.64167 219.21 6.84533 219.453 7.14C219.696 7.43467 219.817 7.79 219.817 8.206C219.817 8.57 219.726 8.88633 219.544 9.155C219.371 9.42367 219.128 9.63167 218.816 9.779C218.513 9.92633 218.162 10 217.763 10H214.383ZM215.228 9.363H217.737C217.962 9.363 218.166 9.30667 218.348 9.194C218.539 9.07267 218.686 8.91667 218.79 8.726C218.903 8.53533 218.959 8.336 218.959 8.128C218.959 7.90267 218.907 7.699 218.803 7.517C218.699 7.32633 218.56 7.17467 218.387 7.062C218.214 6.94933 218.014 6.893 217.789 6.893H215.228V9.363ZM215.228 6.282H217.529C217.754 6.282 217.954 6.22133 218.127 6.1C218.3 5.97867 218.435 5.82267 218.53 5.632C218.625 5.44133 218.673 5.242 218.673 5.034C218.673 4.722 218.569 4.449 218.361 4.215C218.162 3.981 217.902 3.864 217.581 3.864H215.228V6.282ZM221.34 10V3.24H222.224V8.804L226.345 3.227H227.138V10H226.254V4.527L222.198 10H221.34ZM229.059 10V3.227H229.943V6.139H233.817V3.227H234.701V10H233.817V6.932H229.943V10H229.059ZM236.638 10V3.227H237.522V6.126H238.536L240.811 3.227H241.825L239.238 6.516L242.15 10H241.11L238.536 6.945H237.522V10H236.638ZM244.146 12.834C243.998 12.834 243.847 12.808 243.691 12.756C243.543 12.7127 243.392 12.6477 243.236 12.561L243.561 11.937C243.656 11.989 243.743 12.0323 243.821 12.067C243.907 12.1017 243.998 12.119 244.094 12.119C244.319 12.119 244.531 12.0063 244.731 11.781C244.93 11.5557 245.121 11.2263 245.303 10.793L245.641 9.948L242.625 3.227H243.561L246.044 9.09L248.332 3.227H249.216L245.992 11.066C245.818 11.4733 245.636 11.807 245.446 12.067C245.255 12.327 245.051 12.5177 244.835 12.639C244.618 12.769 244.388 12.834 244.146 12.834ZM3.913 28.13C3.419 28.13 2.964 28.039 2.548 27.857C2.14067 27.6663 1.781 27.4063 1.469 27.077C1.16567 26.7477 0.927333 26.3707 0.754 25.946C0.589333 25.5213 0.507 25.0707 0.507 24.594C0.507 23.9527 0.65 23.3677 0.936 22.839C1.222 22.3103 1.62067 21.89 2.132 21.578C2.64333 21.266 3.23267 21.11 3.9 21.11C4.53267 21.11 5.09167 21.2573 5.577 21.552C6.06233 21.838 6.422 22.228 6.656 22.722L5.798 22.995C5.60733 22.6483 5.33867 22.3797 4.992 22.189C4.654 21.9897 4.277 21.89 3.861 21.89C3.41033 21.89 2.99867 22.007 2.626 22.241C2.25333 22.475 1.95433 22.7957 1.729 23.203C1.51233 23.6103 1.404 24.074 1.404 24.594C1.404 25.1053 1.51667 25.569 1.742 25.985C1.96733 26.401 2.26633 26.7347 2.639 26.986C3.01167 27.2287 3.42333 27.35 3.874 27.35C4.16867 27.35 4.45033 27.298 4.719 27.194C4.99633 27.09 5.23467 26.9513 5.434 26.778C5.642 26.596 5.78067 26.401 5.85 26.193L6.721 26.453C6.59967 26.7737 6.396 27.064 6.11 27.324C5.83267 27.5753 5.50333 27.7747 5.122 27.922C4.74933 28.0607 4.34633 28.13 3.913 28.13ZM10.9323 28.13C10.447 28.13 9.99629 28.039 9.58029 27.857C9.17296 27.6663 8.81762 27.4107 8.51429 27.09C8.21962 26.7607 7.98996 26.388 7.82529 25.972C7.66062 25.5473 7.57829 25.101 7.57829 24.633C7.57829 24.1477 7.66062 23.697 7.82529 23.281C7.98996 22.8563 8.22396 22.4837 8.52729 22.163C8.83062 21.8337 9.18596 21.578 9.59329 21.396C10.0093 21.2053 10.46 21.11 10.9453 21.11C11.4306 21.11 11.877 21.2053 12.2843 21.396C12.6916 21.578 13.047 21.8337 13.3503 22.163C13.6536 22.4837 13.8876 22.8563 14.0523 23.281C14.217 23.697 14.2993 24.1477 14.2993 24.633C14.2993 25.101 14.217 25.5473 14.0523 25.972C13.8876 26.388 13.6536 26.7607 13.3503 27.09C13.0556 27.4107 12.7003 27.6663 12.2843 27.857C11.877 28.039 11.4263 28.13 10.9323 28.13ZM8.47529 24.646C8.47529 25.1487 8.58362 25.608 8.80029 26.024C9.02562 26.4313 9.32462 26.7563 9.69729 26.999C10.07 27.233 10.4816 27.35 10.9323 27.35C11.383 27.35 11.7946 27.2287 12.1673 26.986C12.54 26.7433 12.839 26.414 13.0643 25.998C13.2896 25.5733 13.4023 25.114 13.4023 24.62C13.4023 24.1173 13.2896 23.658 13.0643 23.242C12.839 22.826 12.54 22.4967 12.1673 22.254C11.7946 22.0113 11.383 21.89 10.9323 21.89C10.4816 21.89 10.07 22.0157 9.69729 22.267C9.33329 22.5183 9.03862 22.852 8.81329 23.268C8.58796 23.6753 8.47529 24.1347 8.47529 24.646ZM22.0292 28.13C21.5352 28.13 21.0802 28.039 20.6642 27.857C20.2569 27.6663 19.8972 27.4063 19.5852 27.077C19.2819 26.7477 19.0435 26.3707 18.8702 25.946C18.7055 25.5213 18.6232 25.0707 18.6232 24.594C18.6232 23.9527 18.7662 23.3677 19.0522 22.839C19.3382 22.3103 19.7369 21.89 20.2482 21.578C20.7595 21.266 21.3489 21.11 22.0162 21.11C22.6489 21.11 23.2079 21.2573 23.6932 21.552C24.1785 21.838 24.5382 22.228 24.7722 22.722L23.9142 22.995C23.7235 22.6483 23.4549 22.3797 23.1082 22.189C22.7702 21.9897 22.3932 21.89 21.9772 21.89C21.5265 21.89 21.1149 22.007 20.7422 22.241C20.3695 22.475 20.0705 22.7957 19.8452 23.203C19.6285 23.6103 19.5202 24.074 19.5202 24.594C19.5202 25.1053 19.6329 25.569 19.8582 25.985C20.0835 26.401 20.3825 26.7347 20.7552 26.986C21.1279 27.2287 21.5395 27.35 21.9902 27.35C22.2849 27.35 22.5665 27.298 22.8352 27.194C23.1125 27.09 23.3509 26.9513 23.5502 26.778C23.7582 26.596 23.8969 26.401 23.9662 26.193L24.8372 26.453C24.7159 26.7737 24.5122 27.064 24.2262 27.324C23.9489 27.5753 23.6195 27.7747 23.2382 27.922C22.8655 28.0607 22.4625 28.13 22.0292 28.13ZM26.213 28V21.227H27.097V24.126H28.111L30.386 21.227H31.4L28.813 24.516L31.725 28H30.685L28.111 24.945H27.097V28H26.213ZM32.9669 28V21.24H33.8509V26.804L37.9719 21.227H38.7649V28H37.8809V22.527L33.8249 28H32.9669ZM39.9446 29.573V27.207H40.0616C40.261 27.207 40.443 27.1463 40.6076 27.025C40.7723 26.9037 40.9196 26.6913 41.0496 26.388C41.1796 26.0847 41.2836 25.6687 41.3616 25.14C41.4396 24.6027 41.4916 23.9267 41.5176 23.112L41.5826 21.227H45.9896V27.207H46.8996V29.573H46.1066V28H40.7246V29.573H39.9446ZM41.4006 27.207H45.1056V22.02H42.3756L42.3366 23.19C42.3106 23.996 42.2543 24.672 42.1676 25.218C42.0896 25.7553 41.9856 26.1843 41.8556 26.505C41.7343 26.817 41.5826 27.051 41.4006 27.207ZM48.2266 28V21.227H49.1106V24.126H50.1246L52.3996 21.227H53.4136L50.8266 24.516L53.7386 28H52.6986L50.1246 24.945H49.1106V28H48.2266ZM57.5241 28.13C57.0388 28.13 56.5881 28.039 56.1721 27.857C55.7648 27.6663 55.4094 27.4107 55.1061 27.09C54.8114 26.7607 54.5818 26.388 54.4171 25.972C54.2524 25.5473 54.1701 25.101 54.1701 24.633C54.1701 24.1477 54.2524 23.697 54.4171 23.281C54.5818 22.8563 54.8158 22.4837 55.1191 22.163C55.4224 21.8337 55.7778 21.578 56.1851 21.396C56.6011 21.2053 57.0518 21.11 57.5371 21.11C58.0224 21.11 58.4688 21.2053 58.8761 21.396C59.2834 21.578 59.6388 21.8337 59.9421 22.163C60.2454 22.4837 60.4794 22.8563 60.6441 23.281C60.8088 23.697 60.8911 24.1477 60.8911 24.633C60.8911 25.101 60.8088 25.5473 60.6441 25.972C60.4794 26.388 60.2454 26.7607 59.9421 27.09C59.6474 27.4107 59.2921 27.6663 58.8761 27.857C58.4688 28.039 58.0181 28.13 57.5241 28.13ZM55.0671 24.646C55.0671 25.1487 55.1754 25.608 55.3921 26.024C55.6174 26.4313 55.9164 26.7563 56.2891 26.999C56.6618 27.233 57.0734 27.35 57.5241 27.35C57.9748 27.35 58.3864 27.2287 58.7591 26.986C59.1318 26.7433 59.4308 26.414 59.6561 25.998C59.8814 25.5733 59.9941 25.114 59.9941 24.62C59.9941 24.1173 59.8814 23.658 59.6561 23.242C59.4308 22.826 59.1318 22.4967 58.7591 22.254C58.3864 22.0113 57.9748 21.89 57.5241 21.89C57.0734 21.89 56.6618 22.0157 56.2891 22.267C55.9251 22.5183 55.6304 22.852 55.4051 23.268C55.1798 23.6753 55.0671 24.1347 55.0671 24.646ZM62.3565 28V21.24H63.2405V26.804L67.3615 21.227H68.1545V28H67.2705V22.527L63.2145 28H62.3565ZM65.2685 20.369C64.6792 20.369 64.2242 20.2303 63.9035 19.953C63.5829 19.6757 63.4225 19.3247 63.4225 18.9H64.0725C64.0725 19.16 64.1679 19.3767 64.3585 19.55C64.5579 19.7233 64.8612 19.81 65.2685 19.81C65.6672 19.81 65.9575 19.7277 66.1395 19.563C66.3302 19.3983 66.4385 19.1773 66.4645 18.9H67.1015C67.1015 19.3247 66.9412 19.6757 66.6205 19.953C66.2999 20.2303 65.8492 20.369 65.2685 20.369ZM77.7048 27.194V28H73.2978V27.194H75.1438V21.63C75.0744 21.734 74.9574 21.8467 74.7928 21.968C74.6281 22.0893 74.4374 22.202 74.2208 22.306C74.0128 22.41 73.8048 22.4967 73.5968 22.566C73.3888 22.6353 73.1981 22.67 73.0248 22.67V21.812C73.2241 21.812 73.4408 21.7557 73.6748 21.643C73.9088 21.5303 74.1341 21.4003 74.3508 21.253C74.5674 21.1057 74.7494 20.967 74.8968 20.837C75.0441 20.707 75.1264 20.6203 75.1438 20.577H76.0538V27.194H77.7048ZM81.3933 29.937C80.7433 29.937 80.154 29.7723 79.6253 29.443C79.0966 29.1223 78.7023 28.6977 78.4423 28.169L79.0273 27.727C79.27 28.1517 79.5993 28.494 80.0153 28.754C80.44 29.014 80.9036 29.144 81.4063 29.144C81.8396 29.144 82.2253 29.0487 82.5633 28.858C82.91 28.6673 83.183 28.403 83.3823 28.065C83.5903 27.727 83.6943 27.337 83.6943 26.895C83.6943 26.4703 83.5946 26.0977 83.3953 25.777C83.2046 25.4477 82.9403 25.192 82.6023 25.01C82.273 24.828 81.9003 24.737 81.4843 24.737C81.0856 24.737 80.7043 24.828 80.3403 25.01C79.9763 25.1833 79.6816 25.439 79.4563 25.777H78.6373L79.6643 20.577H84.1233V21.396H80.3273L79.6903 24.711C79.9156 24.4683 80.193 24.282 80.5223 24.152C80.8516 24.0133 81.207 23.944 81.5883 23.944C82.1516 23.944 82.6586 24.0697 83.1093 24.321C83.5686 24.5723 83.9326 24.919 84.2013 25.361C84.47 25.803 84.6043 26.31 84.6043 26.882C84.6043 27.4887 84.457 28.0217 84.1623 28.481C83.8763 28.9403 83.4906 29.2957 83.0053 29.547C82.52 29.807 81.9826 29.937 81.3933 29.937ZM87.5413 22.371C87.186 22.371 86.861 22.2887 86.5663 22.124C86.2716 21.9593 86.0333 21.734 85.8513 21.448C85.678 21.162 85.5913 20.85 85.5913 20.512C85.5913 20.1653 85.678 19.849 85.8513 19.563C86.0333 19.277 86.2716 19.0517 86.5663 18.887C86.861 18.7223 87.186 18.64 87.5413 18.64C87.8966 18.64 88.2216 18.7223 88.5163 18.887C88.811 19.0517 89.045 19.277 89.2183 19.563C89.3916 19.849 89.4783 20.161 89.4783 20.499C89.4783 20.8457 89.3916 21.162 89.2183 21.448C89.045 21.734 88.811 21.9593 88.5163 22.124C88.2216 22.2887 87.8966 22.371 87.5413 22.371ZM87.5413 21.864C87.7753 21.864 87.9876 21.8033 88.1783 21.682C88.3776 21.552 88.5336 21.383 88.6463 21.175C88.759 20.967 88.8153 20.746 88.8153 20.512C88.8153 20.2607 88.7546 20.031 88.6333 19.823C88.512 19.615 88.3516 19.4547 88.1523 19.342C87.9616 19.2207 87.758 19.16 87.5413 19.16C87.2986 19.16 87.082 19.225 86.8913 19.355C86.7006 19.4763 86.5446 19.641 86.4233 19.849C86.3106 20.0483 86.2543 20.265 86.2543 20.499C86.2543 20.7503 86.3106 20.98 86.4233 21.188C86.5446 21.3873 86.7006 21.552 86.8913 21.682C87.0906 21.8033 87.3073 21.864 87.5413 21.864ZM91.8963 28.13C91.541 28.13 91.216 28.0477 90.9213 27.883C90.6266 27.7183 90.3926 27.493 90.2193 27.207C90.046 26.921 89.9593 26.6047 89.9593 26.258C89.9593 25.9113 90.046 25.5993 90.2193 25.322C90.3926 25.036 90.6266 24.8107 90.9213 24.646C91.216 24.4813 91.541 24.399 91.8963 24.399C92.2603 24.399 92.5896 24.4813 92.8843 24.646C93.179 24.8107 93.413 25.036 93.5863 25.322C93.7596 25.5993 93.8463 25.9113 93.8463 26.258C93.8463 26.6047 93.7596 26.921 93.5863 27.207C93.413 27.4843 93.179 27.7097 92.8843 27.883C92.5896 28.0477 92.2603 28.13 91.8963 28.13ZM91.8963 27.61C92.139 27.61 92.3556 27.5493 92.5463 27.428C92.7456 27.298 92.8973 27.1333 93.0013 26.934C93.114 26.726 93.1703 26.505 93.1703 26.271C93.1703 26.0197 93.1096 25.79 92.9883 25.582C92.8756 25.374 92.7196 25.2093 92.5203 25.088C92.3296 24.9667 92.1216 24.906 91.8963 24.906C91.6623 24.906 91.4456 24.971 91.2463 25.101C91.0556 25.2223 90.904 25.387 90.7913 25.595C90.6786 25.803 90.6223 26.024 90.6223 26.258C90.6223 26.5093 90.6786 26.739 90.7913 26.947C90.9126 27.1463 91.0686 27.3067 91.2593 27.428C91.4586 27.5493 91.671 27.61 91.8963 27.61ZM85.9033 27.649L89.5433 23.229L93.0663 18.718L93.5213 19.108L89.9073 23.528L86.3583 28.052L85.9033 27.649ZM95.5476 25.036V18.679H96.4316V25.036H95.5476ZM95.5476 28V26.544H96.4316V28H95.5476ZM108.337 28V19.576H104.567L104.515 21.526C104.472 22.8 104.381 23.8573 104.242 24.698C104.104 25.5387 103.909 26.2017 103.657 26.687C103.406 27.1637 103.098 27.506 102.734 27.714C102.37 27.9133 101.937 28.013 101.434 28.013V27.207C101.772 27.207 102.071 27.1203 102.331 26.947C102.591 26.7737 102.812 26.4703 102.994 26.037C103.176 25.6037 103.319 25.0057 103.423 24.243C103.536 23.4717 103.61 22.4967 103.644 21.318L103.722 18.77H109.234V28H108.337ZM114.286 28.13C113.8 28.13 113.35 28.039 112.934 27.857C112.518 27.6663 112.158 27.4107 111.855 27.09C111.551 26.7607 111.313 26.3837 111.14 25.959C110.975 25.5343 110.893 25.0793 110.893 24.594C110.893 23.9613 111.036 23.3807 111.322 22.852C111.616 22.3233 112.019 21.903 112.531 21.591C113.042 21.2703 113.623 21.11 114.273 21.11C114.94 21.11 115.521 21.2703 116.015 21.591C116.517 21.9117 116.912 22.3363 117.198 22.865C117.484 23.385 117.627 23.957 117.627 24.581C117.627 24.6503 117.627 24.7197 117.627 24.789C117.627 24.8497 117.622 24.8973 117.614 24.932H111.816C111.859 25.4173 111.993 25.8507 112.219 26.232C112.453 26.6047 112.752 26.9037 113.116 27.129C113.488 27.3457 113.891 27.454 114.325 27.454C114.767 27.454 115.183 27.3413 115.573 27.116C115.971 26.8907 116.249 26.596 116.405 26.232L117.172 26.44C117.033 26.7607 116.821 27.051 116.535 27.311C116.249 27.571 115.911 27.7747 115.521 27.922C115.139 28.0607 114.728 28.13 114.286 28.13ZM111.79 24.295H116.795C116.76 23.801 116.626 23.3677 116.392 22.995C116.166 22.6223 115.867 22.332 115.495 22.124C115.131 21.9073 114.728 21.799 114.286 21.799C113.844 21.799 113.441 21.9073 113.077 22.124C112.713 22.332 112.414 22.6267 112.18 23.008C111.954 23.3807 111.824 23.8097 111.79 24.295ZM118.978 28V21.227H123.021V22.02H119.862V28H118.978ZM124.246 28V21.227H125.13V24.126H126.144L128.419 21.227H129.433L126.846 24.516L129.758 28H128.718L126.144 24.945H125.13V28H124.246ZM130.442 26.05C130.442 25.6253 130.563 25.2613 130.806 24.958C131.048 24.646 131.382 24.4077 131.807 24.243C132.24 24.0697 132.738 23.983 133.302 23.983C133.631 23.983 133.973 24.009 134.329 24.061C134.684 24.113 135 24.191 135.278 24.295V23.723C135.278 23.151 135.109 22.696 134.771 22.358C134.433 22.02 133.965 21.851 133.367 21.851C133.003 21.851 132.643 21.9203 132.288 22.059C131.941 22.189 131.577 22.384 131.196 22.644L130.858 22.02C131.3 21.7167 131.733 21.4913 132.158 21.344C132.582 21.188 133.016 21.11 133.458 21.11C134.29 21.11 134.948 21.3483 135.434 21.825C135.919 22.3017 136.162 22.9603 136.162 23.801V26.934C136.162 27.0553 136.188 27.1463 136.24 27.207C136.292 27.259 136.374 27.2893 136.487 27.298V28C136.391 28.0087 136.309 28.0173 136.24 28.026C136.17 28.0347 136.118 28.0347 136.084 28.026C135.867 28.0173 135.702 27.948 135.59 27.818C135.477 27.688 135.416 27.5493 135.408 27.402L135.395 26.908C135.091 27.298 134.697 27.6013 134.212 27.818C133.726 28.026 133.232 28.13 132.73 28.13C132.296 28.13 131.902 28.039 131.547 27.857C131.2 27.6663 130.927 27.415 130.728 27.103C130.537 26.7823 130.442 26.4313 130.442 26.05ZM134.979 26.57C135.074 26.4487 135.148 26.3317 135.2 26.219C135.252 26.1063 135.278 26.0067 135.278 25.92V24.932C134.983 24.8193 134.675 24.7327 134.355 24.672C134.043 24.6113 133.726 24.581 133.406 24.581C132.773 24.581 132.262 24.7067 131.872 24.958C131.482 25.2093 131.287 25.5517 131.287 25.985C131.287 26.2363 131.352 26.4747 131.482 26.7C131.612 26.9167 131.802 27.0987 132.054 27.246C132.305 27.3847 132.6 27.454 132.938 27.454C133.362 27.454 133.757 27.3717 134.121 27.207C134.493 27.0423 134.779 26.83 134.979 26.57ZM137.565 28L139.58 25.231C139.12 25.1617 138.748 24.9623 138.462 24.633C138.184 24.295 138.046 23.8357 138.046 23.255C138.046 22.865 138.137 22.5183 138.319 22.215C138.501 21.9117 138.756 21.669 139.086 21.487C139.424 21.305 139.818 21.214 140.269 21.214H142.856V28H141.972V25.374H140.464L138.553 28H137.565ZM140.256 24.698H141.972V21.916H140.412C139.961 21.916 139.601 22.046 139.333 22.306C139.064 22.5573 138.93 22.878 138.93 23.268C138.93 23.6667 139.038 24.0047 139.255 24.282C139.48 24.5593 139.814 24.698 140.256 24.698ZM151.052 28.13C150.558 28.13 150.103 28.039 149.687 27.857C149.279 27.6663 148.92 27.4063 148.608 27.077C148.304 26.7477 148.066 26.3707 147.893 25.946C147.728 25.5213 147.646 25.0707 147.646 24.594C147.646 23.9527 147.789 23.3677 148.075 22.839C148.361 22.3103 148.759 21.89 149.271 21.578C149.782 21.266 150.371 21.11 151.039 21.11C151.671 21.11 152.23 21.2573 152.716 21.552C153.201 21.838 153.561 22.228 153.795 22.722L152.937 22.995C152.746 22.6483 152.477 22.3797 152.131 22.189C151.793 21.9897 151.416 21.89 151 21.89C150.549 21.89 150.137 22.007 149.765 22.241C149.392 22.475 149.093 22.7957 148.868 23.203C148.651 23.6103 148.543 24.074 148.543 24.594C148.543 25.1053 148.655 25.569 148.881 25.985C149.106 26.401 149.405 26.7347 149.778 26.986C150.15 27.2287 150.562 27.35 151.013 27.35C151.307 27.35 151.589 27.298 151.858 27.194C152.135 27.09 152.373 26.9513 152.573 26.778C152.781 26.596 152.919 26.401 152.989 26.193L153.86 26.453C153.738 26.7737 153.535 27.064 153.249 27.324C152.971 27.5753 152.642 27.7747 152.261 27.922C151.888 28.0607 151.485 28.13 151.052 28.13ZM155.235 28V21.227H160.682V28H159.798V22.02H156.119V28H155.235ZM162.091 26.05C162.091 25.6253 162.212 25.2613 162.455 24.958C162.698 24.646 163.031 24.4077 163.456 24.243C163.889 24.0697 164.388 23.983 164.951 23.983C165.28 23.983 165.623 24.009 165.978 24.061C166.333 24.113 166.65 24.191 166.927 24.295V23.723C166.927 23.151 166.758 22.696 166.42 22.358C166.082 22.02 165.614 21.851 165.016 21.851C164.652 21.851 164.292 21.9203 163.937 22.059C163.59 22.189 163.226 22.384 162.845 22.644L162.507 22.02C162.949 21.7167 163.382 21.4913 163.807 21.344C164.232 21.188 164.665 21.11 165.107 21.11C165.939 21.11 166.598 21.3483 167.083 21.825C167.568 22.3017 167.811 22.9603 167.811 23.801V26.934C167.811 27.0553 167.837 27.1463 167.889 27.207C167.941 27.259 168.023 27.2893 168.136 27.298V28C168.041 28.0087 167.958 28.0173 167.889 28.026C167.82 28.0347 167.768 28.0347 167.733 28.026C167.516 28.0173 167.352 27.948 167.239 27.818C167.126 27.688 167.066 27.5493 167.057 27.402L167.044 26.908C166.741 27.298 166.346 27.6013 165.861 27.818C165.376 28.026 164.882 28.13 164.379 28.13C163.946 28.13 163.551 28.039 163.196 27.857C162.849 27.6663 162.576 27.415 162.377 27.103C162.186 26.7823 162.091 26.4313 162.091 26.05ZM166.628 26.57C166.723 26.4487 166.797 26.3317 166.849 26.219C166.901 26.1063 166.927 26.0067 166.927 25.92V24.932C166.632 24.8193 166.325 24.7327 166.004 24.672C165.692 24.6113 165.376 24.581 165.055 24.581C164.422 24.581 163.911 24.7067 163.521 24.958C163.131 25.2093 162.936 25.5517 162.936 25.985C162.936 26.2363 163.001 26.4747 163.131 26.7C163.261 26.9167 163.452 27.0987 163.703 27.246C163.954 27.3847 164.249 27.454 164.587 27.454C165.012 27.454 165.406 27.3717 165.77 27.207C166.143 27.0423 166.429 26.83 166.628 26.57ZM169.591 24.867V24.048H173.387V24.867H169.591ZM175.192 28V21.227H180.639V28H179.755V22.02H176.076V28H175.192ZM186.052 28.13C185.489 28.13 184.982 27.9827 184.531 27.688C184.089 27.3933 183.738 27.0293 183.478 26.596V30.769H182.594V21.227H183.387V22.54C183.656 22.1153 184.015 21.773 184.466 21.513C184.917 21.2443 185.398 21.11 185.909 21.11C186.377 21.11 186.806 21.2097 187.196 21.409C187.586 21.5997 187.924 21.8597 188.21 22.189C188.496 22.5183 188.717 22.8953 188.873 23.32C189.038 23.736 189.12 24.1693 189.12 24.62C189.12 25.2527 188.99 25.8377 188.73 26.375C188.479 26.9037 188.123 27.3283 187.664 27.649C187.205 27.9697 186.667 28.13 186.052 28.13ZM185.805 27.35C186.178 27.35 186.511 27.2763 186.806 27.129C187.101 26.973 187.352 26.765 187.56 26.505C187.777 26.245 187.941 25.9547 188.054 25.634C188.167 25.3047 188.223 24.9667 188.223 24.62C188.223 24.256 188.158 23.9093 188.028 23.58C187.907 23.2507 187.729 22.9603 187.495 22.709C187.261 22.4577 186.992 22.2583 186.689 22.111C186.386 21.9637 186.056 21.89 185.701 21.89C185.476 21.89 185.242 21.9333 184.999 22.02C184.756 22.1067 184.522 22.2323 184.297 22.397C184.08 22.553 183.898 22.7307 183.751 22.93C183.604 23.1293 183.513 23.3417 183.478 23.567V25.647C183.617 25.9677 183.803 26.258 184.037 26.518C184.271 26.7693 184.54 26.973 184.843 27.129C185.155 27.2763 185.476 27.35 185.805 27.35ZM193.504 28.13C193.018 28.13 192.568 28.039 192.152 27.857C191.744 27.6663 191.389 27.4107 191.086 27.09C190.791 26.7607 190.561 26.388 190.397 25.972C190.232 25.5473 190.15 25.101 190.15 24.633C190.15 24.1477 190.232 23.697 190.397 23.281C190.561 22.8563 190.795 22.4837 191.099 22.163C191.402 21.8337 191.757 21.578 192.165 21.396C192.581 21.2053 193.031 21.11 193.517 21.11C194.002 21.11 194.448 21.2053 194.856 21.396C195.263 21.578 195.618 21.8337 195.922 22.163C196.225 22.4837 196.459 22.8563 196.624 23.281C196.788 23.697 196.871 24.1477 196.871 24.633C196.871 25.101 196.788 25.5473 196.624 25.972C196.459 26.388 196.225 26.7607 195.922 27.09C195.627 27.4107 195.272 27.6663 194.856 27.857C194.448 28.039 193.998 28.13 193.504 28.13ZM191.047 24.646C191.047 25.1487 191.155 25.608 191.372 26.024C191.597 26.4313 191.896 26.7563 192.269 26.999C192.641 27.233 193.053 27.35 193.504 27.35C193.954 27.35 194.366 27.2287 194.739 26.986C195.111 26.7433 195.41 26.414 195.636 25.998C195.861 25.5733 195.974 25.114 195.974 24.62C195.974 24.1173 195.861 23.658 195.636 23.242C195.41 22.826 195.111 22.4967 194.739 22.254C194.366 22.0113 193.954 21.89 193.504 21.89C193.053 21.89 192.641 22.0157 192.269 22.267C191.905 22.5183 191.61 22.852 191.385 23.268C191.159 23.6753 191.047 24.1347 191.047 24.646ZM198.336 28V21.227H202.379V22.02H199.22V28H198.336ZM207.076 28.13C206.512 28.13 206.005 27.9827 205.555 27.688C205.113 27.3933 204.762 27.0293 204.502 26.596V30.769H203.618V21.227H204.411V22.54C204.679 22.1153 205.039 21.773 205.49 21.513C205.94 21.2443 206.421 21.11 206.933 21.11C207.401 21.11 207.83 21.2097 208.22 21.409C208.61 21.5997 208.948 21.8597 209.234 22.189C209.52 22.5183 209.741 22.8953 209.897 23.32C210.061 23.736 210.144 24.1693 210.144 24.62C210.144 25.2527 210.014 25.8377 209.754 26.375C209.502 26.9037 209.147 27.3283 208.688 27.649C208.228 27.9697 207.691 28.13 207.076 28.13ZM206.829 27.35C207.201 27.35 207.535 27.2763 207.83 27.129C208.124 26.973 208.376 26.765 208.584 26.505C208.8 26.245 208.965 25.9547 209.078 25.634C209.19 25.3047 209.247 24.9667 209.247 24.62C209.247 24.256 209.182 23.9093 209.052 23.58C208.93 23.2507 208.753 22.9603 208.519 22.709C208.285 22.4577 208.016 22.2583 207.713 22.111C207.409 21.9637 207.08 21.89 206.725 21.89C206.499 21.89 206.265 21.9333 206.023 22.02C205.78 22.1067 205.546 22.2323 205.321 22.397C205.104 22.553 204.922 22.7307 204.775 22.93C204.627 23.1293 204.536 23.3417 204.502 23.567V25.647C204.64 25.9677 204.827 26.258 205.061 26.518C205.295 26.7693 205.563 26.973 205.867 27.129C206.179 27.2763 206.499 27.35 206.829 27.35ZM211.095 26.05C211.095 25.6253 211.216 25.2613 211.459 24.958C211.702 24.646 212.035 24.4077 212.46 24.243C212.893 24.0697 213.392 23.983 213.955 23.983C214.284 23.983 214.627 24.009 214.982 24.061C215.337 24.113 215.654 24.191 215.931 24.295V23.723C215.931 23.151 215.762 22.696 215.424 22.358C215.086 22.02 214.618 21.851 214.02 21.851C213.656 21.851 213.296 21.9203 212.941 22.059C212.594 22.189 212.23 22.384 211.849 22.644L211.511 22.02C211.953 21.7167 212.386 21.4913 212.811 21.344C213.236 21.188 213.669 21.11 214.111 21.11C214.943 21.11 215.602 21.3483 216.087 21.825C216.572 22.3017 216.815 22.9603 216.815 23.801V26.934C216.815 27.0553 216.841 27.1463 216.893 27.207C216.945 27.259 217.027 27.2893 217.14 27.298V28C217.045 28.0087 216.962 28.0173 216.893 28.026C216.824 28.0347 216.772 28.0347 216.737 28.026C216.52 28.0173 216.356 27.948 216.243 27.818C216.13 27.688 216.07 27.5493 216.061 27.402L216.048 26.908C215.745 27.298 215.35 27.6013 214.865 27.818C214.38 28.026 213.886 28.13 213.383 28.13C212.95 28.13 212.555 28.039 212.2 27.857C211.853 27.6663 211.58 27.415 211.381 27.103C211.19 26.7823 211.095 26.4313 211.095 26.05ZM215.632 26.57C215.727 26.4487 215.801 26.3317 215.853 26.219C215.905 26.1063 215.931 26.0067 215.931 25.92V24.932C215.636 24.8193 215.329 24.7327 215.008 24.672C214.696 24.6113 214.38 24.581 214.059 24.581C213.426 24.581 212.915 24.7067 212.525 24.958C212.135 25.2093 211.94 25.5517 211.94 25.985C211.94 26.2363 212.005 26.4747 212.135 26.7C212.265 26.9167 212.456 27.0987 212.707 27.246C212.958 27.3847 213.253 27.454 213.591 27.454C214.016 27.454 214.41 27.3717 214.774 27.207C215.147 27.0423 215.433 26.83 215.632 26.57ZM218.712 28V21.227H219.622L222.313 25.894L225.017 21.227H225.888V28H225.043V22.553L222.599 26.791H222.027L219.557 22.553V28H218.712ZM227.827 28V21.227H228.737L231.428 25.894L234.132 21.227H235.003V28H234.158V22.553L231.714 26.791H231.142L228.672 22.553V28H227.827ZM236.409 26.05C236.409 25.6253 236.531 25.2613 236.773 24.958C237.016 24.646 237.35 24.4077 237.774 24.243C238.208 24.0697 238.706 23.983 239.269 23.983C239.599 23.983 239.941 24.009 240.296 24.061C240.652 24.113 240.968 24.191 241.245 24.295V23.723C241.245 23.151 241.076 22.696 240.738 22.358C240.4 22.02 239.932 21.851 239.334 21.851C238.97 21.851 238.611 21.9203 238.255 22.059C237.909 22.189 237.545 22.384 237.163 22.644L236.825 22.02C237.267 21.7167 237.701 21.4913 238.125 21.344C238.55 21.188 238.983 21.11 239.425 21.11C240.257 21.11 240.916 21.3483 241.401 21.825C241.887 22.3017 242.129 22.9603 242.129 23.801V26.934C242.129 27.0553 242.155 27.1463 242.207 27.207C242.259 27.259 242.342 27.2893 242.454 27.298V28C242.359 28.0087 242.277 28.0173 242.207 28.026C242.138 28.0347 242.086 28.0347 242.051 28.026C241.835 28.0173 241.67 27.948 241.557 27.818C241.445 27.688 241.384 27.5493 241.375 27.402L241.362 26.908C241.059 27.298 240.665 27.6013 240.179 27.818C239.694 28.026 239.2 28.13 238.697 28.13C238.264 28.13 237.87 28.039 237.514 27.857C237.168 27.6663 236.895 27.415 236.695 27.103C236.505 26.7823 236.409 26.4313 236.409 26.05ZM240.946 26.57C241.042 26.4487 241.115 26.3317 241.167 26.219C241.219 26.1063 241.245 26.0067 241.245 25.92V24.932C240.951 24.8193 240.643 24.7327 240.322 24.672C240.01 24.6113 239.694 24.581 239.373 24.581C238.741 24.581 238.229 24.7067 237.839 24.958C237.449 25.2093 237.254 25.5517 237.254 25.985C237.254 26.2363 237.319 26.4747 237.449 26.7C237.579 26.9167 237.77 27.0987 238.021 27.246C238.273 27.3847 238.567 27.454 238.905 27.454C239.33 27.454 239.724 27.3717 240.088 27.207C240.461 27.0423 240.747 26.83 240.946 26.57ZM244.182 29.053L244.403 27.961H244.104V26.726H244.962V27.961L244.637 29.053H244.182ZM0.962 46V39.227H1.846V42.139H5.72V39.227H6.604V46H5.72V42.932H1.846V46H0.962ZM8.0081 44.05C8.0081 43.6253 8.12943 43.2613 8.3721 42.958C8.61477 42.646 8.94843 42.4077 9.3731 42.243C9.80644 42.0697 10.3048 41.983 10.8681 41.983C11.1974 41.983 11.5398 42.009 11.8951 42.061C12.2504 42.113 12.5668 42.191 12.8441 42.295V41.723C12.8441 41.151 12.6751 40.696 12.3371 40.358C11.9991 40.02 11.5311 39.851 10.9331 39.851C10.5691 39.851 10.2094 39.9203 9.8541 40.059C9.50743 40.189 9.14343 40.384 8.7621 40.644L8.4241 40.02C8.8661 39.7167 9.29943 39.4913 9.7241 39.344C10.1488 39.188 10.5821 39.11 11.0241 39.11C11.8561 39.11 12.5148 39.3483 13.0001 39.825C13.4854 40.3017 13.7281 40.9603 13.7281 41.801V44.934C13.7281 45.0553 13.7541 45.1463 13.8061 45.207C13.8581 45.259 13.9404 45.2893 14.0531 45.298V46C13.9578 46.0087 13.8754 46.0173 13.8061 46.026C13.7368 46.0347 13.6848 46.0347 13.6501 46.026C13.4334 46.0173 13.2688 45.948 13.1561 45.818C13.0434 45.688 12.9828 45.5493 12.9741 45.402L12.9611 44.908C12.6578 45.298 12.2634 45.6013 11.7781 45.818C11.2928 46.026 10.7988 46.13 10.2961 46.13C9.86277 46.13 9.46844 46.039 9.1131 45.857C8.76643 45.6663 8.49343 45.415 8.2941 45.103C8.10343 44.7823 8.0081 44.4313 8.0081 44.05ZM12.5451 44.57C12.6404 44.4487 12.7141 44.3317 12.7661 44.219C12.8181 44.1063 12.8441 44.0067 12.8441 43.92V42.932C12.5494 42.8193 12.2418 42.7327 11.9211 42.672C11.6091 42.6113 11.2928 42.581 10.9721 42.581C10.3394 42.581 9.8281 42.7067 9.4381 42.958C9.0481 43.2093 8.8531 43.5517 8.8531 43.985C8.8531 44.2363 8.9181 44.4747 9.0481 44.7C9.1781 44.9167 9.36877 45.0987 9.6201 45.246C9.87143 45.3847 10.1661 45.454 10.5041 45.454C10.9288 45.454 11.3231 45.3717 11.6871 45.207C12.0598 45.0423 12.3458 44.83 12.5451 44.57ZM15.6251 46V39.227H21.0721V46H20.1881V40.02H16.5091V46H15.6251ZM26.4848 46.13C25.9214 46.13 25.4144 45.9827 24.9638 45.688C24.5218 45.3933 24.1708 45.0293 23.9108 44.596V48.769H23.0268V39.227H23.8198V40.54C24.0884 40.1153 24.4481 39.773 24.8988 39.513C25.3494 39.2443 25.8304 39.11 26.3418 39.11C26.8098 39.11 27.2388 39.2097 27.6288 39.409C28.0188 39.5997 28.3568 39.8597 28.6428 40.189C28.9288 40.5183 29.1498 40.8953 29.3058 41.32C29.4704 41.736 29.5528 42.1693 29.5528 42.62C29.5528 43.2527 29.4228 43.8377 29.1628 44.375C28.9114 44.9037 28.5561 45.3283 28.0968 45.649C27.6374 45.9697 27.1001 46.13 26.4848 46.13ZM26.2378 45.35C26.6104 45.35 26.9441 45.2763 27.2388 45.129C27.5334 44.973 27.7848 44.765 27.9928 44.505C28.2094 44.245 28.3741 43.9547 28.4868 43.634C28.5994 43.3047 28.6558 42.9667 28.6558 42.62C28.6558 42.256 28.5908 41.9093 28.4608 41.58C28.3394 41.2507 28.1618 40.9603 27.9278 40.709C27.6938 40.4577 27.4251 40.2583 27.1218 40.111C26.8184 39.9637 26.4891 39.89 26.1338 39.89C25.9084 39.89 25.6744 39.9333 25.4318 40.02C25.1891 40.1067 24.9551 40.2323 24.7298 40.397C24.5131 40.553 24.3311 40.7307 24.1838 40.93C24.0364 41.1293 23.9454 41.3417 23.9108 41.567V43.647C24.0494 43.9677 24.2358 44.258 24.4698 44.518C24.7038 44.7693 24.9724 44.973 25.2758 45.129C25.5878 45.2763 25.9084 45.35 26.2378 45.35ZM30.5042 44.05C30.5042 43.6253 30.6255 43.2613 30.8682 42.958C31.1109 42.646 31.4445 42.4077 31.8692 42.243C32.3025 42.0697 32.8009 41.983 33.3642 41.983C33.6935 41.983 34.0359 42.009 34.3912 42.061C34.7465 42.113 35.0629 42.191 35.3402 42.295V41.723C35.3402 41.151 35.1712 40.696 34.8332 40.358C34.4952 40.02 34.0272 39.851 33.4292 39.851C33.0652 39.851 32.7055 39.9203 32.3502 40.059C32.0035 40.189 31.6395 40.384 31.2582 40.644L30.9202 40.02C31.3622 39.7167 31.7955 39.4913 32.2202 39.344C32.6449 39.188 33.0782 39.11 33.5202 39.11C34.3522 39.11 35.0109 39.3483 35.4962 39.825C35.9815 40.3017 36.2242 40.9603 36.2242 41.801V44.934C36.2242 45.0553 36.2502 45.1463 36.3022 45.207C36.3542 45.259 36.4365 45.2893 36.5492 45.298V46C36.4539 46.0087 36.3715 46.0173 36.3022 46.026C36.2329 46.0347 36.1809 46.0347 36.1462 46.026C35.9295 46.0173 35.7649 45.948 35.6522 45.818C35.5395 45.688 35.4789 45.5493 35.4702 45.402L35.4572 44.908C35.1539 45.298 34.7595 45.6013 34.2742 45.818C33.7889 46.026 33.2949 46.13 32.7922 46.13C32.3589 46.13 31.9645 46.039 31.6092 45.857C31.2625 45.6663 30.9895 45.415 30.7902 45.103C30.5995 44.7823 30.5042 44.4313 30.5042 44.05ZM35.0412 44.57C35.1365 44.4487 35.2102 44.3317 35.2622 44.219C35.3142 44.1063 35.3402 44.0067 35.3402 43.92V42.932C35.0455 42.8193 34.7379 42.7327 34.4172 42.672C34.1052 42.6113 33.7889 42.581 33.4682 42.581C32.8355 42.581 32.3242 42.7067 31.9342 42.958C31.5442 43.2093 31.3492 43.5517 31.3492 43.985C31.3492 44.2363 31.4142 44.4747 31.5442 44.7C31.6742 44.9167 31.8649 45.0987 32.1162 45.246C32.3675 45.3847 32.6622 45.454 33.0002 45.454C33.4249 45.454 33.8192 45.3717 34.1832 45.207C34.5559 45.0423 34.8419 44.83 35.0412 44.57ZM38.1212 46V39.227H41.5012C41.8825 39.227 42.2032 39.3093 42.4632 39.474C42.7232 39.63 42.9182 39.8337 43.0482 40.085C43.1868 40.3363 43.2562 40.605 43.2562 40.891C43.2562 41.255 43.1695 41.5843 42.9962 41.879C42.8228 42.165 42.5715 42.3817 42.2422 42.529C42.6322 42.6417 42.9485 42.8453 43.1912 43.14C43.4338 43.4347 43.5552 43.79 43.5552 44.206C43.5552 44.57 43.4642 44.8863 43.2822 45.155C43.1088 45.4237 42.8662 45.6317 42.5542 45.779C42.2508 45.9263 41.8998 46 41.5012 46H38.1212ZM38.9662 45.363H41.4752C41.7005 45.363 41.9042 45.3067 42.0862 45.194C42.2768 45.0727 42.4242 44.9167 42.5282 44.726C42.6408 44.5353 42.6972 44.336 42.6972 44.128C42.6972 43.9027 42.6452 43.699 42.5412 43.517C42.4372 43.3263 42.2985 43.1747 42.1252 43.062C41.9518 42.9493 41.7525 42.893 41.5272 42.893H38.9662V45.363ZM38.9662 42.282H41.2672C41.4925 42.282 41.6918 42.2213 41.8652 42.1C42.0385 41.9787 42.1728 41.8227 42.2682 41.632C42.3635 41.4413 42.4112 41.242 42.4112 41.034C42.4112 40.722 42.3072 40.449 42.0992 40.215C41.8998 39.981 41.6398 39.864 41.3192 39.864H38.9662V42.282ZM44.4412 46.039V45.233C44.6752 45.233 44.8832 45.1723 45.0652 45.051C45.2472 44.921 45.4075 44.7043 45.5462 44.401C45.6935 44.0977 45.8105 43.6817 45.8972 43.153C45.9839 42.6157 46.0402 41.9353 46.0662 41.112L46.1442 39.227H50.5382V46H49.6542V40.02H46.9242L46.8982 41.19C46.8635 42.126 46.7899 42.9103 46.6772 43.543C46.5645 44.167 46.4042 44.661 46.1962 45.025C45.9969 45.389 45.7499 45.649 45.4552 45.805C45.1605 45.961 44.8225 46.039 44.4412 46.039ZM55.4176 46.13C54.9322 46.13 54.4816 46.039 54.0656 45.857C53.6496 45.6663 53.2899 45.4107 52.9866 45.09C52.6832 44.7607 52.4449 44.3837 52.2716 43.959C52.1069 43.5343 52.0246 43.0793 52.0246 42.594C52.0246 41.9613 52.1676 41.3807 52.4536 40.852C52.7482 40.3233 53.1512 39.903 53.6626 39.591C54.1739 39.2703 54.7546 39.11 55.4046 39.11C56.0719 39.11 56.6526 39.2703 57.1466 39.591C57.6492 39.9117 58.0436 40.3363 58.3296 40.865C58.6156 41.385 58.7586 41.957 58.7586 42.581C58.7586 42.6503 58.7586 42.7197 58.7586 42.789C58.7586 42.8497 58.7542 42.8973 58.7456 42.932H52.9476C52.9909 43.4173 53.1252 43.8507 53.3506 44.232C53.5846 44.6047 53.8836 44.9037 54.2476 45.129C54.6202 45.3457 55.0232 45.454 55.4566 45.454C55.8986 45.454 56.3146 45.3413 56.7046 45.116C57.1032 44.8907 57.3806 44.596 57.5366 44.232L58.3036 44.44C58.1649 44.7607 57.9526 45.051 57.6666 45.311C57.3806 45.571 57.0426 45.7747 56.6526 45.922C56.2712 46.0607 55.8596 46.13 55.4176 46.13ZM52.9216 42.295H57.9266C57.8919 41.801 57.7576 41.3677 57.5236 40.995C57.2982 40.6223 56.9992 40.332 56.6266 40.124C56.2626 39.9073 55.8596 39.799 55.4176 39.799C54.9756 39.799 54.5726 39.9073 54.2086 40.124C53.8446 40.332 53.5456 40.6267 53.3116 41.008C53.0862 41.3807 52.9562 41.8097 52.9216 42.295ZM60.1095 46V39.227H60.9935V42.139H64.8675V39.227H65.7515V46H64.8675V42.932H60.9935V46H60.1095ZM67.6886 46V39.227H68.5726V42.139H72.4466V39.227H73.3306V46H72.4466V42.932H68.5726V46H67.6886ZM74.7347 44.05C74.7347 43.6253 74.856 43.2613 75.0987 42.958C75.3413 42.646 75.675 42.4077 76.0997 42.243C76.533 42.0697 77.0313 41.983 77.5947 41.983C77.924 41.983 78.2663 42.009 78.6217 42.061C78.977 42.113 79.2933 42.191 79.5707 42.295V41.723C79.5707 41.151 79.4017 40.696 79.0637 40.358C78.7257 40.02 78.2577 39.851 77.6597 39.851C77.2957 39.851 76.936 39.9203 76.5807 40.059C76.234 40.189 75.87 40.384 75.4887 40.644L75.1507 40.02C75.5927 39.7167 76.026 39.4913 76.4507 39.344C76.8753 39.188 77.3087 39.11 77.7507 39.11C78.5827 39.11 79.2413 39.3483 79.7267 39.825C80.212 40.3017 80.4547 40.9603 80.4547 41.801V44.934C80.4547 45.0553 80.4807 45.1463 80.5327 45.207C80.5847 45.259 80.667 45.2893 80.7797 45.298V46C80.6843 46.0087 80.602 46.0173 80.5327 46.026C80.4633 46.0347 80.4113 46.0347 80.3767 46.026C80.16 46.0173 79.9953 45.948 79.8827 45.818C79.77 45.688 79.7093 45.5493 79.7007 45.402L79.6877 44.908C79.3843 45.298 78.99 45.6013 78.5047 45.818C78.0193 46.026 77.5253 46.13 77.0227 46.13C76.5893 46.13 76.195 46.039 75.8397 45.857C75.493 45.6663 75.22 45.415 75.0207 45.103C74.83 44.7823 74.7347 44.4313 74.7347 44.05ZM79.2717 44.57C79.367 44.4487 79.4407 44.3317 79.4927 44.219C79.5447 44.1063 79.5707 44.0067 79.5707 43.92V42.932C79.276 42.8193 78.9683 42.7327 78.6477 42.672C78.3357 42.6113 78.0193 42.581 77.6987 42.581C77.066 42.581 76.5547 42.7067 76.1647 42.958C75.7747 43.2093 75.5797 43.5517 75.5797 43.985C75.5797 44.2363 75.6447 44.4747 75.7747 44.7C75.9047 44.9167 76.0953 45.0987 76.3467 45.246C76.598 45.3847 76.8927 45.454 77.2307 45.454C77.6553 45.454 78.0497 45.3717 78.4137 45.207C78.7863 45.0423 79.0723 44.83 79.2717 44.57ZM81.8576 46L83.8726 43.231C83.4133 43.1617 83.0406 42.9623 82.7546 42.633C82.4773 42.295 82.3386 41.8357 82.3386 41.255C82.3386 40.865 82.4296 40.5183 82.6116 40.215C82.7936 39.9117 83.0493 39.669 83.3786 39.487C83.7166 39.305 84.111 39.214 84.5616 39.214H87.1486V46H86.2646V43.374H84.7566L82.8456 46H81.8576ZM84.5486 42.698H86.2646V39.916H84.7046C84.254 39.916 83.8943 40.046 83.6256 40.306C83.357 40.5573 83.2226 40.878 83.2226 41.268C83.2226 41.6667 83.331 42.0047 83.5476 42.282C83.773 42.5593 84.1066 42.698 84.5486 42.698ZM92.3936 46V39.227H93.2776V42.139H97.1516V39.227H98.0356V46H97.1516V42.932H93.2776V46H92.3936ZM99.4397 44.05C99.4397 43.6253 99.5611 43.2613 99.8037 42.958C100.046 42.646 100.38 42.4077 100.805 42.243C101.238 42.0697 101.736 41.983 102.3 41.983C102.629 41.983 102.971 42.009 103.327 42.061C103.682 42.113 103.998 42.191 104.276 42.295V41.723C104.276 41.151 104.107 40.696 103.769 40.358C103.431 40.02 102.963 39.851 102.365 39.851C102.001 39.851 101.641 39.9203 101.286 40.059C100.939 40.189 100.575 40.384 100.194 40.644L99.8557 40.02C100.298 39.7167 100.731 39.4913 101.156 39.344C101.58 39.188 102.014 39.11 102.456 39.11C103.288 39.11 103.946 39.3483 104.432 39.825C104.917 40.3017 105.16 40.9603 105.16 41.801V44.934C105.16 45.0553 105.186 45.1463 105.238 45.207C105.29 45.259 105.372 45.2893 105.485 45.298V46C105.389 46.0087 105.307 46.0173 105.238 46.026C105.168 46.0347 105.116 46.0347 105.082 46.026C104.865 46.0173 104.7 45.948 104.588 45.818C104.475 45.688 104.414 45.5493 104.406 45.402L104.393 44.908C104.089 45.298 103.695 45.6013 103.21 45.818C102.724 46.026 102.23 46.13 101.728 46.13C101.294 46.13 100.9 46.039 100.545 45.857C100.198 45.6663 99.9251 45.415 99.7257 45.103C99.5351 44.7823 99.4397 44.4313 99.4397 44.05ZM103.977 44.57C104.072 44.4487 104.146 44.3317 104.198 44.219C104.25 44.1063 104.276 44.0067 104.276 43.92V42.932C103.981 42.8193 103.673 42.7327 103.353 42.672C103.041 42.6113 102.724 42.581 102.404 42.581C101.771 42.581 101.26 42.7067 100.87 42.958C100.48 43.2093 100.285 43.5517 100.285 43.985C100.285 44.2363 100.35 44.4747 100.48 44.7C100.61 44.9167 100.8 45.0987 101.052 45.246C101.303 45.3847 101.598 45.454 101.936 45.454C102.36 45.454 102.755 45.3717 103.119 45.207C103.491 45.0423 103.777 44.83 103.977 44.57ZM110.769 48.834C110.621 48.834 110.47 48.808 110.314 48.756C110.166 48.7127 110.015 48.6477 109.859 48.561L110.184 47.937C110.279 47.989 110.366 48.0323 110.444 48.067C110.53 48.1017 110.621 48.119 110.717 48.119C110.942 48.119 111.154 48.0063 111.354 47.781C111.553 47.5557 111.744 47.2263 111.926 46.793L112.264 45.948L109.248 39.227H110.184L112.667 45.09L114.955 39.227H115.839L112.615 47.066C112.441 47.4733 112.259 47.807 112.069 48.067C111.878 48.327 111.674 48.5177 111.458 48.639C111.241 48.769 111.011 48.834 110.769 48.834ZM117.061 46V39.227H120.441C120.822 39.227 121.143 39.3093 121.403 39.474C121.663 39.63 121.858 39.8337 121.988 40.085C122.126 40.3363 122.196 40.605 122.196 40.891C122.196 41.255 122.109 41.5843 121.936 41.879C121.762 42.165 121.511 42.3817 121.182 42.529C121.572 42.6417 121.888 42.8453 122.131 43.14C122.373 43.4347 122.495 43.79 122.495 44.206C122.495 44.57 122.404 44.8863 122.222 45.155C122.048 45.4237 121.806 45.6317 121.494 45.779C121.19 45.9263 120.839 46 120.441 46H117.061ZM117.906 45.363H120.415C120.64 45.363 120.844 45.3067 121.026 45.194C121.216 45.0727 121.364 44.9167 121.468 44.726C121.58 44.5353 121.637 44.336 121.637 44.128C121.637 43.9027 121.585 43.699 121.481 43.517C121.377 43.3263 121.238 43.1747 121.065 43.062C120.891 42.9493 120.692 42.893 120.467 42.893H117.906V45.363ZM117.906 42.282H120.207C120.432 42.282 120.631 42.2213 120.805 42.1C120.978 41.9787 121.112 41.8227 121.208 41.632C121.303 41.4413 121.351 41.242 121.351 41.034C121.351 40.722 121.247 40.449 121.039 40.215C120.839 39.981 120.579 39.864 120.259 39.864H117.906V42.282ZM123.381 46.039V45.233C123.615 45.233 123.823 45.1723 124.005 45.051C124.187 44.921 124.347 44.7043 124.486 44.401C124.633 44.0977 124.75 43.6817 124.837 43.153C124.923 42.6157 124.98 41.9353 125.006 41.112L125.084 39.227H129.478V46H128.594V40.02H125.864L125.838 41.19C125.803 42.126 125.729 42.9103 125.617 43.543C125.504 44.167 125.344 44.661 125.136 45.025C124.936 45.389 124.689 45.649 124.395 45.805C124.1 45.961 123.762 46.039 123.381 46.039ZM130.886 44.05C130.886 43.6253 131.007 43.2613 131.25 42.958C131.493 42.646 131.826 42.4077 132.251 42.243C132.684 42.0697 133.183 41.983 133.746 41.983C134.075 41.983 134.418 42.009 134.773 42.061C135.128 42.113 135.445 42.191 135.722 42.295V41.723C135.722 41.151 135.553 40.696 135.215 40.358C134.877 40.02 134.409 39.851 133.811 39.851C133.447 39.851 133.087 39.9203 132.732 40.059C132.385 40.189 132.021 40.384 131.64 40.644L131.302 40.02C131.744 39.7167 132.177 39.4913 132.602 39.344C133.027 39.188 133.46 39.11 133.902 39.11C134.734 39.11 135.393 39.3483 135.878 39.825C136.363 40.3017 136.606 40.9603 136.606 41.801V44.934C136.606 45.0553 136.632 45.1463 136.684 45.207C136.736 45.259 136.818 45.2893 136.931 45.298V46C136.836 46.0087 136.753 46.0173 136.684 46.026C136.615 46.0347 136.563 46.0347 136.528 46.026C136.311 46.0173 136.147 45.948 136.034 45.818C135.921 45.688 135.861 45.5493 135.852 45.402L135.839 44.908C135.536 45.298 135.141 45.6013 134.656 45.818C134.171 46.026 133.677 46.13 133.174 46.13C132.741 46.13 132.346 46.039 131.991 45.857C131.644 45.6663 131.371 45.415 131.172 45.103C130.981 44.7823 130.886 44.4313 130.886 44.05ZM135.423 44.57C135.518 44.4487 135.592 44.3317 135.644 44.219C135.696 44.1063 135.722 44.0067 135.722 43.92V42.932C135.427 42.8193 135.12 42.7327 134.799 42.672C134.487 42.6113 134.171 42.581 133.85 42.581C133.217 42.581 132.706 42.7067 132.316 42.958C131.926 43.2093 131.731 43.5517 131.731 43.985C131.731 44.2363 131.796 44.4747 131.926 44.7C132.056 44.9167 132.247 45.0987 132.498 45.246C132.749 45.3847 133.044 45.454 133.382 45.454C133.807 45.454 134.201 45.3717 134.565 45.207C134.938 45.0423 135.224 44.83 135.423 44.57ZM138.035 46L140.57 42.516L138.282 39.227H139.283L141.324 42.152H142.208V39.227H143.118V42.152H144.028L146.03 39.227H147.044L144.743 42.516L147.304 46H146.277L144.028 42.932H143.118V46H142.208V42.932H141.324L139.062 46H138.035ZM148.761 46V39.227H149.645V42.139H153.519V39.227H154.403V46H153.519V42.932H149.645V46H148.761ZM159.278 46.13C158.793 46.13 158.342 46.039 157.926 45.857C157.51 45.6663 157.15 45.4107 156.847 45.09C156.544 44.7607 156.305 44.3837 156.132 43.959C155.967 43.5343 155.885 43.0793 155.885 42.594C155.885 41.9613 156.028 41.3807 156.314 40.852C156.609 40.3233 157.012 39.903 157.523 39.591C158.034 39.2703 158.615 39.11 159.265 39.11C159.932 39.11 160.513 39.2703 161.007 39.591C161.51 39.9117 161.904 40.3363 162.19 40.865C162.476 41.385 162.619 41.957 162.619 42.581C162.619 42.6503 162.619 42.7197 162.619 42.789C162.619 42.8497 162.615 42.8973 162.606 42.932H156.808C156.851 43.4173 156.986 43.8507 157.211 44.232C157.445 44.6047 157.744 44.9037 158.108 45.129C158.481 45.3457 158.884 45.454 159.317 45.454C159.759 45.454 160.175 45.3413 160.565 45.116C160.964 44.8907 161.241 44.596 161.397 44.232L162.164 44.44C162.025 44.7607 161.813 45.051 161.527 45.311C161.241 45.571 160.903 45.7747 160.513 45.922C160.132 46.0607 159.72 46.13 159.278 46.13ZM156.782 42.295H161.787C161.752 41.801 161.618 41.3677 161.384 40.995C161.159 40.6223 160.86 40.332 160.487 40.124C160.123 39.9073 159.72 39.799 159.278 39.799C158.836 39.799 158.433 39.9073 158.069 40.124C157.705 40.332 157.406 40.6267 157.172 41.008C156.947 41.3807 156.817 41.8097 156.782 42.295ZM163.97 46V39.227H164.854V42.139H168.728V39.227H169.612V46H168.728V42.932H164.854V46H163.97ZM171.549 46V39.24H172.433V44.804L176.554 39.227H177.347V46H176.463V40.527L172.407 46H171.549ZM182.206 46.13C181.72 46.13 181.27 46.039 180.854 45.857C180.438 45.6663 180.078 45.4107 179.775 45.09C179.471 44.7607 179.233 44.3837 179.06 43.959C178.895 43.5343 178.813 43.0793 178.813 42.594C178.813 41.9613 178.956 41.3807 179.242 40.852C179.536 40.3233 179.939 39.903 180.451 39.591C180.962 39.2703 181.543 39.11 182.193 39.11C182.86 39.11 183.441 39.2703 183.935 39.591C184.437 39.9117 184.832 40.3363 185.118 40.865C185.404 41.385 185.547 41.957 185.547 42.581C185.547 42.6503 185.547 42.7197 185.547 42.789C185.547 42.8497 185.542 42.8973 185.534 42.932H179.736C179.779 43.4173 179.913 43.8507 180.139 44.232C180.373 44.6047 180.672 44.9037 181.036 45.129C181.408 45.3457 181.811 45.454 182.245 45.454C182.687 45.454 183.103 45.3413 183.493 45.116C183.891 44.8907 184.169 44.596 184.325 44.232L185.092 44.44C184.953 44.7607 184.741 45.051 184.455 45.311C184.169 45.571 183.831 45.7747 183.441 45.922C183.059 46.0607 182.648 46.13 182.206 46.13ZM179.71 42.295H184.715C184.68 41.801 184.546 41.3677 184.312 40.995C184.086 40.6223 183.787 40.332 183.415 40.124C183.051 39.9073 182.648 39.799 182.206 39.799C181.764 39.799 181.361 39.9073 180.997 40.124C180.633 40.332 180.334 40.6267 180.1 41.008C179.874 41.3807 179.744 41.8097 179.71 42.295ZM190.211 46V39.24H191.095V44.804L195.216 39.227H196.009V46H195.125V40.527L191.069 46H190.211ZM0.962 64V57.227H4.342C4.72333 57.227 5.044 57.3093 5.304 57.474C5.564 57.63 5.759 57.8337 5.889 58.085C6.02767 58.3363 6.097 58.605 6.097 58.891C6.097 59.255 6.01033 59.5843 5.837 59.879C5.66367 60.165 5.41233 60.3817 5.083 60.529C5.473 60.6417 5.78933 60.8453 6.032 61.14C6.27467 61.4347 6.396 61.79 6.396 62.206C6.396 62.57 6.305 62.8863 6.123 63.155C5.94967 63.4237 5.707 63.6317 5.395 63.779C5.09167 63.9263 4.74067 64 4.342 64H0.962ZM1.807 63.363H4.316C4.54133 63.363 4.745 63.3067 4.927 63.194C5.11767 63.0727 5.265 62.9167 5.369 62.726C5.48167 62.5353 5.538 62.336 5.538 62.128C5.538 61.9027 5.486 61.699 5.382 61.517C5.278 61.3263 5.13933 61.1747 4.966 61.062C4.79267 60.9493 4.59333 60.893 4.368 60.893H1.807V63.363ZM1.807 60.282H4.108C4.33333 60.282 4.53267 60.2213 4.706 60.1C4.87933 59.9787 5.01367 59.8227 5.109 59.632C5.20433 59.4413 5.252 59.242 5.252 59.034C5.252 58.722 5.148 58.449 4.94 58.215C4.74067 57.981 4.48067 57.864 4.16 57.864H1.807V60.282ZM10.818 64.13C10.3327 64.13 9.88203 64.039 9.46603 63.857C9.0587 63.6663 8.70336 63.4107 8.40003 63.09C8.10536 62.7607 7.8757 62.388 7.71103 61.972C7.54636 61.5473 7.46403 61.101 7.46403 60.633C7.46403 60.1477 7.54636 59.697 7.71103 59.281C7.8757 58.8563 8.1097 58.4837 8.41303 58.163C8.71636 57.8337 9.0717 57.578 9.47903 57.396C9.89503 57.2053 10.3457 57.11 10.831 57.11C11.3164 57.11 11.7627 57.2053 12.17 57.396C12.5774 57.578 12.9327 57.8337 13.236 58.163C13.5394 58.4837 13.7734 58.8563 13.938 59.281C14.1027 59.697 14.185 60.1477 14.185 60.633C14.185 61.101 14.1027 61.5473 13.938 61.972C13.7734 62.388 13.5394 62.7607 13.236 63.09C12.9414 63.4107 12.586 63.6663 12.17 63.857C11.7627 64.039 11.312 64.13 10.818 64.13ZM8.36103 60.646C8.36103 61.1487 8.46936 61.608 8.68603 62.024C8.91136 62.4313 9.21036 62.7563 9.58303 62.999C9.9557 63.233 10.3674 63.35 10.818 63.35C11.2687 63.35 11.6804 63.2287 12.053 62.986C12.4257 62.7433 12.7247 62.414 12.95 61.998C13.1754 61.5733 13.288 61.114 13.288 60.62C13.288 60.1173 13.1754 59.658 12.95 59.242C12.7247 58.826 12.4257 58.4967 12.053 58.254C11.6804 58.0113 11.2687 57.89 10.818 57.89C10.3674 57.89 9.9557 58.0157 9.58303 58.267C9.21903 58.5183 8.92436 58.852 8.69903 59.268C8.4737 59.6753 8.36103 60.1347 8.36103 60.646ZM18.6015 64.13C18.1075 64.13 17.6525 64.039 17.2365 63.857C16.8291 63.6663 16.4695 63.4063 16.1575 63.077C15.8541 62.7477 15.6158 62.3707 15.4425 61.946C15.2778 61.5213 15.1955 61.0707 15.1955 60.594C15.1955 59.9527 15.3385 59.3677 15.6245 58.839C15.9105 58.3103 16.3091 57.89 16.8205 57.578C17.3318 57.266 17.9211 57.11 18.5885 57.11C19.2211 57.11 19.7801 57.2573 20.2655 57.552C20.7508 57.838 21.1105 58.228 21.3445 58.722L20.4865 58.995C20.2958 58.6483 20.0271 58.3797 19.6805 58.189C19.3425 57.9897 18.9655 57.89 18.5495 57.89C18.0988 57.89 17.6871 58.007 17.3145 58.241C16.9418 58.475 16.6428 58.7957 16.4175 59.203C16.2008 59.6103 16.0925 60.074 16.0925 60.594C16.0925 61.1053 16.2051 61.569 16.4305 61.985C16.6558 62.401 16.9548 62.7347 17.3275 62.986C17.7001 63.2287 18.1118 63.35 18.5625 63.35C18.8571 63.35 19.1388 63.298 19.4075 63.194C19.6848 63.09 19.9231 62.9513 20.1225 62.778C20.3305 62.596 20.4691 62.401 20.5385 62.193L21.4095 62.453C21.2881 62.7737 21.0845 63.064 20.7985 63.324C20.5211 63.5753 20.1918 63.7747 19.8105 63.922C19.4378 64.0607 19.0348 64.13 18.6015 64.13ZM25.6728 64.13C25.1788 64.13 24.7238 64.039 24.3078 63.857C23.9004 63.6663 23.5408 63.4063 23.2288 63.077C22.9254 62.7477 22.6871 62.3707 22.5138 61.946C22.3491 61.5213 22.2668 61.0707 22.2668 60.594C22.2668 59.9527 22.4098 59.3677 22.6958 58.839C22.9818 58.3103 23.3804 57.89 23.8918 57.578C24.4031 57.266 24.9924 57.11 25.6598 57.11C26.2924 57.11 26.8514 57.2573 27.3368 57.552C27.8221 57.838 28.1818 58.228 28.4158 58.722L27.5578 58.995C27.3671 58.6483 27.0984 58.3797 26.7518 58.189C26.4138 57.9897 26.0368 57.89 25.6208 57.89C25.1701 57.89 24.7584 58.007 24.3858 58.241C24.0131 58.475 23.7141 58.7957 23.4888 59.203C23.2721 59.6103 23.1638 60.074 23.1638 60.594C23.1638 61.1053 23.2764 61.569 23.5018 61.985C23.7271 62.401 24.0261 62.7347 24.3988 62.986C24.7714 63.2287 25.1831 63.35 25.6338 63.35C25.9284 63.35 26.2101 63.298 26.4788 63.194C26.7561 63.09 26.9944 62.9513 27.1938 62.778C27.4018 62.596 27.5404 62.401 27.6098 62.193L28.4808 62.453C28.3594 62.7737 28.1558 63.064 27.8698 63.324C27.5924 63.5753 27.2631 63.7747 26.8818 63.922C26.5091 64.0607 26.1061 64.13 25.6728 64.13ZM31.5595 64V58.02H29.1415V57.227H34.8615V58.02H32.4435V64H31.5595ZM35.4808 62.05C35.4808 61.6253 35.6021 61.2613 35.8448 60.958C36.0874 60.646 36.4211 60.4077 36.8458 60.243C37.2791 60.0697 37.7774 59.983 38.3408 59.983C38.6701 59.983 39.0124 60.009 39.3678 60.061C39.7231 60.113 40.0394 60.191 40.3168 60.295V59.723C40.3168 59.151 40.1478 58.696 39.8098 58.358C39.4718 58.02 39.0038 57.851 38.4058 57.851C38.0418 57.851 37.6821 57.9203 37.3268 58.059C36.9801 58.189 36.6161 58.384 36.2348 58.644L35.8968 58.02C36.3388 57.7167 36.7721 57.4913 37.1968 57.344C37.6214 57.188 38.0548 57.11 38.4968 57.11C39.3288 57.11 39.9874 57.3483 40.4728 57.825C40.9581 58.3017 41.2008 58.9603 41.2008 59.801V62.934C41.2008 63.0553 41.2268 63.1463 41.2788 63.207C41.3308 63.259 41.4131 63.2893 41.5258 63.298V64C41.4304 64.0087 41.3481 64.0173 41.2788 64.026C41.2094 64.0347 41.1574 64.0347 41.1228 64.026C40.9061 64.0173 40.7414 63.948 40.6288 63.818C40.5161 63.688 40.4554 63.5493 40.4468 63.402L40.4338 62.908C40.1304 63.298 39.7361 63.6013 39.2508 63.818C38.7654 64.026 38.2714 64.13 37.7688 64.13C37.3354 64.13 36.9411 64.039 36.5858 63.857C36.2391 63.6663 35.9661 63.415 35.7668 63.103C35.5761 62.7823 35.4808 62.4313 35.4808 62.05ZM40.0178 62.57C40.1131 62.4487 40.1868 62.3317 40.2388 62.219C40.2908 62.1063 40.3168 62.0067 40.3168 61.92V60.932C40.0221 60.8193 39.7144 60.7327 39.3938 60.672C39.0818 60.6113 38.7654 60.581 38.4448 60.581C37.8121 60.581 37.3008 60.7067 36.9108 60.958C36.5208 61.2093 36.3258 61.5517 36.3258 61.985C36.3258 62.2363 36.3908 62.4747 36.5208 62.7C36.6508 62.9167 36.8414 63.0987 37.0928 63.246C37.3441 63.3847 37.6388 63.454 37.9768 63.454C38.4014 63.454 38.7958 63.3717 39.1598 63.207C39.5324 63.0423 39.8184 62.83 40.0178 62.57ZM43.0977 64V57.227H43.9817V60.139H47.8557V57.227H48.7397V64H47.8557V60.932H43.9817V64H43.0977ZM53.5758 64.13C53.0905 64.13 52.6398 64.039 52.2238 63.857C51.8165 63.6663 51.4612 63.4107 51.1578 63.09C50.8632 62.7607 50.6335 62.388 50.4688 61.972C50.3042 61.5473 50.2218 61.101 50.2218 60.633C50.2218 60.1477 50.3042 59.697 50.4688 59.281C50.6335 58.8563 50.8675 58.4837 51.1708 58.163C51.4742 57.8337 51.8295 57.578 52.2368 57.396C52.6528 57.2053 53.1035 57.11 53.5888 57.11C54.0742 57.11 54.5205 57.2053 54.9278 57.396C55.3352 57.578 55.6905 57.8337 55.9938 58.163C56.2972 58.4837 56.5312 58.8563 56.6958 59.281C56.8605 59.697 56.9428 60.1477 56.9428 60.633C56.9428 61.101 56.8605 61.5473 56.6958 61.972C56.5312 62.388 56.2972 62.7607 55.9938 63.09C55.6992 63.4107 55.3438 63.6663 54.9278 63.857C54.5205 64.039 54.0698 64.13 53.5758 64.13ZM51.1188 60.646C51.1188 61.1487 51.2272 61.608 51.4438 62.024C51.6692 62.4313 51.9682 62.7563 52.3408 62.999C52.7135 63.233 53.1252 63.35 53.5758 63.35C54.0265 63.35 54.4382 63.2287 54.8108 62.986C55.1835 62.7433 55.4825 62.414 55.7078 61.998C55.9332 61.5733 56.0458 61.114 56.0458 60.62C56.0458 60.1173 55.9332 59.658 55.7078 59.242C55.4825 58.826 55.1835 58.4967 54.8108 58.254C54.4382 58.0113 54.0265 57.89 53.5758 57.89C53.1252 57.89 52.7135 58.0157 52.3408 58.267C51.9768 58.5183 51.6822 58.852 51.4568 59.268C51.2315 59.6753 51.1188 60.1347 51.1188 60.646ZM58.4083 64V57.227H61.7883C62.1696 57.227 62.4903 57.3093 62.7503 57.474C63.0103 57.63 63.2053 57.8337 63.3353 58.085C63.474 58.3363 63.5433 58.605 63.5433 58.891C63.5433 59.255 63.4566 59.5843 63.2833 59.879C63.11 60.165 62.8586 60.3817 62.5293 60.529C62.9193 60.6417 63.2356 60.8453 63.4783 61.14C63.721 61.4347 63.8423 61.79 63.8423 62.206C63.8423 62.57 63.7513 62.8863 63.5693 63.155C63.396 63.4237 63.1533 63.6317 62.8413 63.779C62.538 63.9263 62.187 64 61.7883 64H58.4083ZM59.2533 63.363H61.7623C61.9876 63.363 62.1913 63.3067 62.3733 63.194C62.564 63.0727 62.7113 62.9167 62.8153 62.726C62.928 62.5353 62.9843 62.336 62.9843 62.128C62.9843 61.9027 62.9323 61.699 62.8283 61.517C62.7243 61.3263 62.5856 61.1747 62.4123 61.062C62.239 60.9493 62.0396 60.893 61.8143 60.893H59.2533V63.363ZM59.2533 60.282H61.5543C61.7796 60.282 61.979 60.2213 62.1523 60.1C62.3256 59.9787 62.46 59.8227 62.5553 59.632C62.6506 59.4413 62.6983 59.242 62.6983 59.034C62.6983 58.722 62.5943 58.449 62.3863 58.215C62.187 57.981 61.927 57.864 61.6063 57.864H59.2533V60.282ZM64.7283 64.039V63.233C64.9623 63.233 65.1703 63.1723 65.3523 63.051C65.5343 62.921 65.6947 62.7043 65.8333 62.401C65.9807 62.0977 66.0977 61.6817 66.1843 61.153C66.271 60.6157 66.3273 59.9353 66.3533 59.112L66.4313 57.227H70.8253V64H69.9413V58.02H67.2113L67.1853 59.19C67.1507 60.126 67.077 60.9103 66.9643 61.543C66.8517 62.167 66.6913 62.661 66.4833 63.025C66.284 63.389 66.037 63.649 65.7423 63.805C65.4477 63.961 65.1097 64.039 64.7283 64.039ZM75.7047 64.13C75.2194 64.13 74.7687 64.039 74.3527 63.857C73.9367 63.6663 73.577 63.4107 73.2737 63.09C72.9704 62.7607 72.732 62.3837 72.5587 61.959C72.394 61.5343 72.3117 61.0793 72.3117 60.594C72.3117 59.9613 72.4547 59.3807 72.7407 58.852C73.0354 58.3233 73.4384 57.903 73.9497 57.591C74.461 57.2703 75.0417 57.11 75.6917 57.11C76.359 57.11 76.9397 57.2703 77.4337 57.591C77.9364 57.9117 78.3307 58.3363 78.6167 58.865C78.9027 59.385 79.0457 59.957 79.0457 60.581C79.0457 60.6503 79.0457 60.7197 79.0457 60.789C79.0457 60.8497 79.0414 60.8973 79.0327 60.932H73.2347C73.278 61.4173 73.4124 61.8507 73.6377 62.232C73.8717 62.6047 74.1707 62.9037 74.5347 63.129C74.9074 63.3457 75.3104 63.454 75.7437 63.454C76.1857 63.454 76.6017 63.3413 76.9917 63.116C77.3904 62.8907 77.6677 62.596 77.8237 62.232L78.5907 62.44C78.452 62.7607 78.2397 63.051 77.9537 63.311C77.6677 63.571 77.3297 63.7747 76.9397 63.922C76.5584 64.0607 76.1467 64.13 75.7047 64.13ZM73.2087 60.295H78.2137C78.179 59.801 78.0447 59.3677 77.8107 58.995C77.5854 58.6223 77.2864 58.332 76.9137 58.124C76.5497 57.9073 76.1467 57.799 75.7047 57.799C75.2627 57.799 74.8597 57.9073 74.4957 58.124C74.1317 58.332 73.8327 58.6267 73.5987 59.008C73.3734 59.3807 73.2434 59.8097 73.2087 60.295ZM80.3966 64V57.227H81.2806V60.139H85.1546V57.227H86.0386V64H85.1546V60.932H81.2806V64H80.3966ZM87.9757 64V57.24H88.8597V62.804L92.9807 57.227H93.7737V64H92.8897V58.527L88.8337 64H87.9757ZM98.6324 64.13C98.1471 64.13 97.6964 64.039 97.2804 63.857C96.8644 63.6663 96.5048 63.4107 96.2014 63.09C95.8981 62.7607 95.6598 62.3837 95.4864 61.959C95.3218 61.5343 95.2394 61.0793 95.2394 60.594C95.2394 59.9613 95.3824 59.3807 95.6684 58.852C95.9631 58.3233 96.3661 57.903 96.8774 57.591C97.3888 57.2703 97.9694 57.11 98.6194 57.11C99.2868 57.11 99.8674 57.2703 100.361 57.591C100.864 57.9117 101.258 58.3363 101.544 58.865C101.83 59.385 101.973 59.957 101.973 60.581C101.973 60.6503 101.973 60.7197 101.973 60.789C101.973 60.8497 101.969 60.8973 101.96 60.932H96.1624C96.2058 61.4173 96.3401 61.8507 96.5654 62.232C96.7994 62.6047 97.0984 62.9037 97.4624 63.129C97.8351 63.3457 98.2381 63.454 98.6714 63.454C99.1134 63.454 99.5294 63.3413 99.9194 63.116C100.318 62.8907 100.595 62.596 100.751 62.232L101.518 62.44C101.38 62.7607 101.167 63.051 100.881 63.311C100.595 63.571 100.257 63.7747 99.8674 63.922C99.4861 64.0607 99.0744 64.13 98.6324 64.13ZM96.1364 60.295H101.141C101.107 59.801 100.972 59.3677 100.738 58.995C100.513 58.6223 100.214 58.332 99.8414 58.124C99.4774 57.9073 99.0744 57.799 98.6324 57.799C98.1904 57.799 97.7874 57.9073 97.4234 58.124C97.0594 58.332 96.7604 58.6267 96.5264 59.008C96.3011 59.3807 96.1711 59.8097 96.1364 60.295Z" fill="black"/>
</svg>
