<svg width="75" height="75" viewBox="0 0 75 75" fill="none" xmlns="http://www.w3.org/2000/svg">
<path d="M48.1909 43.7249C47.0364 46.4933 44.3297 46.9784 43.4452 46.9784C43.1855 46.9784 39.1404 47.1929 33.3256 41.6759C28.6461 37.2359 28.0743 32.4614 28.0245 31.5542C27.976 30.6706 28.229 28.454 31.2774 26.8071C31.6551 26.603 32.404 26.5126 32.5974 26.706C32.6832 26.7919 35.2419 31.0033 35.3091 31.1429C35.3764 31.2822 35.4101 31.4194 35.4101 31.554C35.4101 31.7463 35.2731 31.9868 34.9989 32.2754C34.7249 32.564 34.4269 32.8285 34.1046 33.0689C33.7824 33.3094 33.4844 33.5642 33.2102 33.8335C32.9362 34.1026 32.7992 34.3242 32.7992 34.4972C32.8177 34.9464 33.1857 36.5553 35.9889 39.019C38.7926 41.4834 40.1431 42.1776 40.2729 42.2256C40.4029 42.2737 40.5109 42.2974 40.5974 42.2974C40.7706 42.2974 40.9918 42.1606 41.2611 41.8866C41.5301 41.6123 42.4352 40.3714 42.7237 40.0971C43.0122 39.8233 43.2527 39.6863 43.4452 39.6863C43.5797 39.6863 43.7167 39.7198 43.856 39.7871C43.9955 39.8543 48.2113 42.3219 48.2919 42.4044C48.5106 42.6286 48.3562 43.3285 48.1909 43.7249Z" fill="white"/>
<circle cx="37.5" cy="37.5" r="37" stroke="white"/>
</svg>
