<svg width="75" height="75" viewBox="0 0 75 75" fill="none" xmlns="http://www.w3.org/2000/svg">
<path d="M48.1909 43.7246C47.0364 46.493 44.3297 46.9782 43.4452 46.9782C43.1855 46.9782 39.1404 47.1927 33.3256 41.6757C28.6461 37.2357 28.0743 32.4611 28.0245 31.554C27.976 30.6704 28.229 28.4538 31.2774 26.8068C31.6551 26.6027 32.404 26.5124 32.5974 26.7058C32.6832 26.7916 35.2419 31.0031 35.3091 31.1426C35.3764 31.2819 35.4101 31.4192 35.4101 31.5537C35.4101 31.746 35.2731 31.9866 34.9989 32.2752C34.7249 32.5637 34.4269 32.8283 34.1046 33.0686C33.7824 33.3092 33.4844 33.564 33.2102 33.8333C32.9362 34.1024 32.7992 34.3239 32.7992 34.497C32.8177 34.9461 33.1857 36.555 35.9889 39.0187C38.7926 41.4831 40.1431 42.1774 40.2729 42.2254C40.4029 42.2734 40.5109 42.2972 40.5974 42.2972C40.7706 42.2972 40.9918 42.1604 41.2611 41.8863C41.5301 41.612 42.4352 40.3712 42.7237 40.0969C43.0122 39.8231 43.2527 39.686 43.4452 39.686C43.5797 39.686 43.7167 39.7195 43.856 39.7868C43.9955 39.8541 48.2113 42.3217 48.2919 42.4041C48.5106 42.6284 48.3562 43.3283 48.1909 43.7246Z" fill="#9E9D52"/>
<circle cx="37.5" cy="37.5" r="37" stroke="#9E9D52"/>
</svg>
