<svg width="86" height="86" viewBox="0 0 86 86" fill="none" xmlns="http://www.w3.org/2000/svg">
<circle opacity="0.6" cx="43" cy="43" r="43" fill="#D4D626"/>
<path d="M58.7049 52.5348C56.9821 56.666 52.9429 57.39 51.623 57.39C51.2354 57.39 45.199 57.7101 36.5217 49.4771C29.5385 42.8514 28.6852 35.7264 28.6109 34.3727C28.5386 33.0541 28.916 29.7463 33.4652 27.2886C34.0289 26.984 35.1464 26.8492 35.435 27.1378C35.563 27.2659 39.3813 33.5506 39.4816 33.7588C39.582 33.9667 39.6323 34.1715 39.6323 34.3723C39.6323 34.6593 39.4279 35.0183 39.0187 35.4489C38.6098 35.8795 38.1651 36.2743 37.6842 36.6329C37.2033 36.9919 36.7586 37.3722 36.3494 37.7741C35.9405 38.1756 35.7361 38.5062 35.7361 38.7645C35.7638 39.4347 36.3129 41.8356 40.4961 45.5122C44.6799 49.1898 46.6953 50.2258 46.889 50.2975C47.0829 50.3691 47.2441 50.4046 47.3732 50.4046C47.6317 50.4046 47.9619 50.2004 48.3637 49.7914C48.7651 49.3821 50.1158 47.5305 50.5463 47.1211C50.9769 46.7125 51.3357 46.508 51.623 46.508C51.8237 46.508 52.0281 46.558 52.236 46.6584C52.4441 46.7588 58.7353 50.4411 58.8556 50.5641C59.182 50.8988 58.9516 51.9432 58.7049 52.5348Z" fill="#1D201D"/>
</svg>
