<svg width="13" height="16" viewBox="0 0 13 16" fill="none" xmlns="http://www.w3.org/2000/svg">
<path d="M6.91627 0C6.11727 -4.66922e-07 5.3261 0.157373 4.58793 0.463134C3.84976 0.768895 3.17903 1.21706 2.61406 1.78203C2.04909 2.347 1.60093 3.01772 1.29517 3.7559C0.989404 4.49407 0.832031 5.28524 0.832031 6.08423C0.832031 10.4922 6.35162 16 6.91627 16C7.48092 16 13.0005 10.4922 13.0005 6.08423C13.0005 5.28524 12.8431 4.49407 12.5374 3.7559C12.2316 3.01772 11.7834 2.347 11.2185 1.78203C10.6535 1.21706 9.98278 0.768895 9.2446 0.463134C8.50643 0.157373 7.71526 -4.66922e-07 6.91627 0ZM6.91627 9.19987C6.30005 9.19987 5.69767 9.01714 5.18531 8.67479C4.67295 8.33244 4.27361 7.84585 4.03779 7.27654C3.80198 6.70723 3.74028 6.08078 3.86049 5.4764C3.98071 4.87203 4.27745 4.31687 4.71318 3.88114C5.14891 3.44541 5.70406 3.14868 6.30843 3.02846C6.91281 2.90824 7.53926 2.96994 8.10857 3.20576C8.67788 3.44158 9.16447 3.84091 9.50682 4.35328C9.84917 4.86564 10.0319 5.46802 10.0319 6.08423C10.0319 6.49339 9.95132 6.89853 9.79474 7.27654C9.63817 7.65455 9.40867 7.99801 9.11936 8.28732C8.83004 8.57664 8.48658 8.80613 8.10857 8.96271C7.73056 9.11928 7.32542 9.19987 6.91627 9.19987Z" fill="#9E9D52"/>
</svg>
